<svg id="Group_16" data-name="Group 16" xmlns="http://www.w3.org/2000/svg" width="618.37" height="435.779" viewBox="0 0 618.37 435.779">
  <circle id="Ellipse_38" data-name="Ellipse 38" cx="33.676" cy="33.676" r="33.676" transform="translate(282.138 367.504)" fill="#217721"/>
  <path id="Path_206" data-name="Path 206" d="M727.786,597.9c18.84-5.658,38.869-11.558,53.81-25.009,13.351-12.019,22.365-30.373,16.834-48.4-5.52-17.989-22.053-29.983-39.124-35.949-9.682-3.384-19.811-5.261-29.936-6.735-11.007-1.6-22.062-2.916-33.112-4.18q-67.115-7.676-134.735-9.379c-22.244-.56-44.484-.547-66.731-.224-19.868.288-40.793.281-59.225-8.163-14.333-6.567-27.342-18.513-31.335-34.213-4.61-18.122,3.893-36.577,16.091-49.7a130.283,130.283,0,0,1,21.7-18.1c8.41-5.808,17.113-11.206,26-16.243a362.118,362.118,0,0,1,54.735-25.234c9.331-3.393,18.8-6.32,28.352-9.02a242.594,242.594,0,0,0,23.951-7.67c15.069-6.006,29.4-16.179,33.232-32.857,3.631-15.807-2.491-32.966-13.225-44.709-12.418-13.585-31.142-19.541-49.093-20.5-20.153-1.082-39.842,3.962-58.784,10.363-20.2,6.827-39.97,14.678-60.6,20.208a407.734,407.734,0,0,1-62.37,11.594c-10.309,1.1-20.93,2.337-31.3,1.5-8.692-.7-17.339-3.26-23.744-9.429-5.492-5.289-8.764-12.558-7.639-20.229.2-1.393,2.321-.8,2.118.584-1.369,9.338,4.978,17.942,12.8,22.35,9.04,5.094,20.04,5.1,30.1,4.518a393.735,393.735,0,0,0,64.8-9.367c20.932-4.781,41.116-11.615,61.278-18.916,19.148-6.934,38.725-13.7,59.181-15.2,17.75-1.3,36.422,1.283,51.886,10.559a57.4,57.4,0,0,1,26.768,37.349c3.112,15.245-1.2,30.59-12.738,41.229-11.949,11.015-28.332,15.724-43.6,20.062a399.449,399.449,0,0,0-56.657,20.281,355.669,355.669,0,0,0-53.3,29.963c-16.286,11.129-32.359,25.133-37.509,44.987a41.444,41.444,0,0,0,2.058,27.793,50.79,50.79,0,0,0,16.3,19.34c16.341,12.024,36.935,14.493,56.673,14.738,22.168.276,44.337-.472,66.513-.108q67.79,1.113,135.3,8.252,16.917,1.791,33.791,3.958c10.119,1.3,20.271,2.592,30.219,4.9,17.689,4.106,34.9,12,45.9,27a42.692,42.692,0,0,1,3.636,46.682c-8.443,16.611-24.256,27.177-41.05,34.118a291.284,291.284,0,0,1-27.637,9.331,1.1,1.1,0,0,1-.584-2.118Z" transform="translate(-210.792 -164.934)" fill="#d2cfcf"/>
  <circle id="Ellipse_39" data-name="Ellipse 39" cx="17.57" cy="17.57" r="17.57" transform="translate(74.594 33.31)" fill="#d2cfcf"/>
  <circle id="Ellipse_40" data-name="Ellipse 40" cx="17.57" cy="17.57" r="17.57" transform="translate(196.485 66.619)" fill="#d2cfcf"/>
  <circle id="Ellipse_41" data-name="Ellipse 41" cx="17.57" cy="17.57" r="17.57" transform="translate(299.708)" fill="#d2cfcf"/>
  <circle id="Ellipse_42" data-name="Ellipse 42" cx="17.57" cy="17.57" r="17.57" transform="translate(364.131 74.672)" fill="#f2f2f2"/>
  <circle id="Ellipse_43" data-name="Ellipse 43" cx="17.57" cy="17.57" r="17.57" transform="translate(277.014 161.058)" fill="#d2cfcf"/>
  <circle id="Ellipse_44" data-name="Ellipse 44" cx="17.57" cy="17.57" r="17.57" transform="translate(166.47 202.786)" fill="#d2cfcf"/>
  <circle id="Ellipse_45" data-name="Ellipse 45" cx="17.57" cy="17.57" r="17.57" transform="translate(283.603 267.941)" fill="#d2cfcf"/>
  <circle id="Ellipse_46" data-name="Ellipse 46" cx="17.57" cy="17.57" r="17.57" transform="translate(409.52 304.545)" fill="#f2f2f2"/>
  <circle id="Ellipse_47" data-name="Ellipse 47" cx="17.57" cy="17.57" r="17.57" transform="translate(556.668 296.492)" fill="#d2cfcf"/>
  <path id="Path_207" data-name="Path 207" d="M568.819,220.372c-52.631.372-95.724,43.141-96.471,95.768-.007.486-.01,3.9-.01,8.371a24.706,24.706,0,0,0,24.7,24.7h0a24.72,24.72,0,0,0,24.716-24.737c0-3.045,0-5.149,0-5.278a46.853,46.853,0,1,1,72.125,39.444l.009.01s-35.161,22.636-45.88,53.687l.009,0a68.821,68.821,0,0,0-2.836,19.6c0,2.727.16,26.59.47,45.958a25.466,25.466,0,0,0,25.469,25.053h0a25.473,25.473,0,0,0,25.472-25.631c-.108-17.738-.166-38.392-.166-39.891,0-19.067,18.394-38.064,33.5-50.453a101.615,101.615,0,0,0,34.947-55.637,63.514,63.514,0,0,0,1.83-13.788,97.184,97.184,0,0,0-97.886-97.181Z" transform="translate(-256.612 -170.588)" fill="#217721"/>
  <path id="Path_208" data-name="Path 208" d="M795.163,746.993H178.534a.872.872,0,1,1,0-1.743H795.16a.872.872,0,0,1,0,1.743Z" transform="translate(-177.662 -311.214)" fill="#3f3d56"/>
  <circle id="Ellipse_48" data-name="Ellipse 48" cx="21.962" cy="21.962" r="21.962" transform="translate(438.112 155.93)" fill="#2f2e41"/>
  <path id="Path_209" data-name="Path 209" d="M568.165,569.46H559.19l-4.27-34.619h13.247Z" transform="translate(-148.674 -143.295)" fill="#a0616a"/>
  <path id="Path_210" data-name="Path 210" d="M548.007,578.626h17.309v10.9H537.109A10.9,10.9,0,0,1,548.007,578.626Z" transform="translate(-143.902 -155.026)" fill="#144814"/>
  <path id="Path_211" data-name="Path 211" d="M663.165,569.46H654.19l-4.27-34.619h13.247Z" transform="translate(-174.127 -143.295)" fill="#a0616a"/>
  <path id="Path_212" data-name="Path 212" d="M643.007,578.626h17.309v10.9H632.109A10.9,10.9,0,0,1,643.007,578.626Z" transform="translate(-169.355 -155.026)" fill="#144814"/>
  <circle id="Ellipse_49" data-name="Ellipse 49" cx="17.981" cy="17.981" r="17.981" transform="translate(438.757 164.022)" fill="#a0616a"/>
  <path id="Path_213" data-name="Path 213" d="M792.664,486l8.045-18.485a22.974,22.974,0,0,0-5.088-26.062,23.333,23.333,0,0,0-2.248-1.955,22.647,22.647,0,0,0-13.9-4.81,23.558,23.558,0,0,0-9.81,2.182c-.264.117-.52.242-.784.366-.505.242-1,.505-1.486.776A23.191,23.191,0,0,0,755.9,455.491l-3.551,29.752c-.893,2.335-32.753,86.671-21.611,151.057a3.27,3.27,0,0,0,2.8,2.687l11.3,1.537a3.292,3.292,0,0,0,3.668-2.584l18.954-90.346a2.565,2.565,0,0,1,4.978-.168l26.78,95.009a3.273,3.273,0,0,0,3.155,2.4,3.753,3.753,0,0,0,.637-.059l13.8-2.657a3.273,3.273,0,0,0,2.658-3.521C817.43,615.985,806.654,502.71,792.664,486Z" transform="translate(-325.21 -228.007)" fill="#185d18"/>
  <path id="Path_214" data-name="Path 214" d="M706.084,419.007a7.362,7.362,0,0,0,7.756,8.2l10.051,24.153,7.6-11.27-10.71-21.208a7.4,7.4,0,0,0-14.7.123Z" transform="translate(-319.224 -222.041)" fill="#a0616a"/>
  <path id="Path_215" data-name="Path 215" d="M797.142,527.155a7.362,7.362,0,0,0,6.169-9.454l21.146-15.4-12.731-4.767L793.6,512.889a7.4,7.4,0,0,0,3.545,14.266Z" transform="translate(-341.402 -244.845)" fill="#a0616a"/>
  <path id="Path_216" data-name="Path 216" d="M743.591,474.423a12.483,12.483,0,0,1-2.415-.238,11.937,11.937,0,0,1-8.747-7.04l-14.081-17.17a3.295,3.295,0,0,1,.813-4.891l10.018-6.2a3.294,3.294,0,0,1,4.55,1.091l9.924,16.35,19.006-14.046a7.117,7.117,0,0,1,8.28,11.393l-18.97,17.3a11.9,11.9,0,0,1-8.38,3.448Z" transform="translate(-322.323 -229)" fill="#144814"/>
  <path id="Path_217" data-name="Path 217" d="M818.787,502.211h-.077a3.3,3.3,0,0,1-2.424-1.15l-8.907-10.391a3.294,3.294,0,0,1,.674-4.885l16.678-11.118L809.622,456.5a7.117,7.117,0,0,1,10.9-8.919l18.363,17.945a12.1,12.1,0,0,1-2.691,19.722l-15.008,15.926a3.3,3.3,0,0,1-2.4,1.035Z" transform="translate(-346.164 -230.965)" fill="#144814"/>
  <path id="Path_218" data-name="Path 218" d="M791.667,460.3a3.385,3.385,0,0,1-.427-.027,3.266,3.266,0,0,1-2.717-2.247L781.83,437.5A2.257,2.257,0,0,1,783,434.776l.217-.1c.2-.094.392-.186.591-.275a23.847,23.847,0,0,1,9.958-2.213,22.934,22.934,0,0,1,12.564,3.775,2.291,2.291,0,0,1,.66,3.144l-12.555,19.669a3.262,3.262,0,0,1-2.765,1.523Z" transform="translate(-339.502 -227.338)" fill="#e6e6e6"/>
  <circle id="Ellipse_50" data-name="Ellipse 50" cx="7.187" cy="7.187" r="7.187" transform="translate(470.203 153.714)" fill="#2f2e41"/>
  <path id="Path_219" data-name="Path 219" d="M789.145,361.365h0A19.034,19.034,0,0,0,770.111,380.4v8.053h9.9l4.737-8.053,1.421,8.053h30.058l-8.053-8.053a19.034,19.034,0,0,0-19.034-19.034Z" transform="translate(-336.391 -208.363)" fill="#2f2e41"/>
  <path id="Path_220" data-name="Path 220" d="M834.809,362.608A11.091,11.091,0,0,1,846.874,355c4.58.766,8.2,4.447,10.358,8.559s3.154,8.714,4.6,13.125,3.508,8.846,7.169,11.7,9.281,3.63,12.877.693a14.728,14.728,0,0,1-27.436,5.257c-1.9-3.376-2.388-7.333-2.95-11.165s-1.294-7.8-3.56-10.938-6.506-5.193-10.105-3.762Z" transform="translate(-353.725 -206.63)" fill="#2f2e41"/>
  <path id="Path_221" data-name="Path 221" d="M503.889,352.253h0a24.706,24.706,0,0,1-24.7-24.7c0-4.471,0-7.888.01-8.374a96.273,96.273,0,0,1,11.244-43.858,96.49,96.49,0,0,0-18.565,55.571c-.007.486-.01,3.9-.01,8.371a24.706,24.706,0,0,0,24.7,24.7h0a24.724,24.724,0,0,0,23.784-18A24.615,24.615,0,0,1,503.889,352.253Z" transform="translate(-256.485 -185.31)" fill="#144814"/>
  <path id="Path_222" data-name="Path 222" d="M592.546,287.172a46.856,46.856,0,0,1,40.747,65.457,46.851,46.851,0,1,0-78.644-49.039A46.758,46.758,0,0,1,592.546,287.172Z" transform="translate(-278.664 -185.333)" fill="#144814"/>
  <path id="Path_223" data-name="Path 223" d="M604.625,553.844h0a25.468,25.468,0,0,1-25.469-25.059c-.31-19.362-.47-43.225-.47-45.953a68.817,68.817,0,0,1,2.836-19.6l-.009,0a69.578,69.578,0,0,1,4.022-9.3,80.565,80.565,0,0,0-11.343,21.011l.009,0a68.821,68.821,0,0,0-2.836,19.6c0,2.727.161,26.59.47,45.958A25.467,25.467,0,0,0,597.3,565.558h0a25.477,25.477,0,0,0,24.452-18.333A25.374,25.374,0,0,1,604.625,553.844Z" transform="translate(-283.143 -233.165)" fill="#144814"/>
  <path id="Path_224" data-name="Path 224" d="M126.54,569.915h8.975l4.27-34.619H126.538Z" transform="translate(-33.902 -143.417)" fill="#ffb8b8"/>
  <path id="Path_225" data-name="Path 225" d="M0,0H28.208V10.9H10.9A10.9,10.9,0,0,1,0,0Z" transform="translate(118.92 434.832) rotate(179.997)" fill="#144814"/>
  <path id="Path_226" data-name="Path 226" d="M82.54,569.915h8.975l4.27-34.619H82.538Z" transform="translate(-22.114 -143.417)" fill="#ffb8b8"/>
  <path id="Path_227" data-name="Path 227" d="M0,0H28.208V10.9H10.9A10.9,10.9,0,0,1,0,0Z" transform="translate(86.709 434.832) rotate(179.997)" fill="#144814"/>
  <path id="Path_228" data-name="Path 228" d="M266.522,676.455l-8.767-.461a3.421,3.421,0,0,1-3.235-3.636L265,556.348l48.252,13.02L317.9,568.1,303.362,670.8a3.438,3.438,0,0,1-3.191,2.888l-9.45.44a3.422,3.422,0,0,1-3.61-3.511l1.712-61.638a1.141,1.141,0,0,0-2.257-.264l-16.514,65.018a3.4,3.4,0,0,1-3.345,2.727C266.646,676.46,266.584,676.459,266.522,676.455Z" transform="translate(-198.252 -260.603)" fill="#144814"/>
  <circle id="Ellipse_51" data-name="Ellipse 51" cx="17.981" cy="17.981" r="17.981" transform="translate(76.269 164.863)" fill="#ffb8b8"/>
  <path id="Path_229" data-name="Path 229" d="M265.5,463.861l1.977,42.656.715,15.519a3.4,3.4,0,0,0,2.251,3.057l46.367,16.8a3.275,3.275,0,0,0,1.171.205,3.4,3.4,0,0,0,3.414-3.505l-1.9-76.7a27.036,27.036,0,0,0-22.507-26.118c-.449-.068-.9-.137-1.361-.2a26.538,26.538,0,0,0-21.351,6.912,27.26,27.26,0,0,0-8.775,21.374Z" transform="translate(-201.187 -228.192)" fill="#ccc"/>
  <path id="Path_230" data-name="Path 230" d="M358.662,557.206a7.367,7.367,0,0,1-3.93-11.147l-15.724-20.908,13.569-.84,12.851,19.984a7.4,7.4,0,0,1-6.766,12.911Z" transform="translate(-220.89 -252.02)" fill="#ffb8b8"/>
  <path id="Path_231" data-name="Path 231" d="M341.142,522.888a3.4,3.4,0,0,1-1.86-1.844L315.593,464.6a9.124,9.124,0,0,1,16.826-7.062l23.689,56.44a3.425,3.425,0,0,1-1.831,4.479l-10.517,4.414a3.4,3.4,0,0,1-2.619.013Z" transform="translate(-214.426 -232.632)" fill="#ccc"/>
  <path id="Path_232" data-name="Path 232" d="M298.36,529.486l22.752-43.565a3.571,3.571,0,0,1,4.813-1.511l33.025,17.248a3.571,3.571,0,0,1,1.511,4.813l-22.753,43.565a3.571,3.571,0,0,1-4.813,1.511L299.87,534.3A3.571,3.571,0,0,1,298.36,529.486Z" transform="translate(-209.891 -241.221)" fill="#217721"/>
  <path id="Path_233" data-name="Path 233" d="M307.2,512.455a7.367,7.367,0,0,0-11.36-3.265l-21.8-14.462L274,508.323l20.707,11.649a7.4,7.4,0,0,0,12.489-7.516Z" transform="translate(-203.474 -244.094)" fill="#ffb8b8"/>
  <path id="Path_234" data-name="Path 234" d="M272.046,501.933,254.229,487.82a12.565,12.565,0,0,1-5.727-19.865l16.177-21.2a7.391,7.391,0,0,1,12.54,7.529l-12.8,20.938,18.81,8.922a3.421,3.421,0,0,1,1.426,4.919l-7.593,12.016a3.427,3.427,0,0,1-2.318,1.545l-.057.009A3.437,3.437,0,0,1,272.046,501.933Z" transform="translate(-195.881 -230.515)" fill="#ccc"/>
  <path id="Path_235" data-name="Path 235" d="M284.61,404.9a1.563,1.563,0,0,1,1.359-2.064,3.61,3.61,0,0,1,2.545,1.255,10.129,10.129,0,0,0,2.248,1.931,1.934,1.934,0,0,0,2.545-.46,3.54,3.54,0,0,0-.135-2.748,27.018,27.018,0,0,1-1.193-7.152c-.081-2.709.3-5.536,1.8-7.649,1.936-2.727,5.4-3.762,8.672-3.687s6.5,1.086,9.742,1.725c1.12.221,2.437.333,3.186-.535.8-.923.5-2.417.165-3.663-.879-3.234-1.812-6.577-3.855-9.189a13.835,13.835,0,0,0-8.829-4.971A21.186,21.186,0,0,0,293,368.811a26.426,26.426,0,0,0-12.945,9.018,21.4,21.4,0,0,0-4.084,15.813,19.523,19.523,0,0,0,7.237,12.339Z" transform="translate(-203.947 -210.016)" fill="#2f2e41"/>
  <path id="Path_236" data-name="Path 236" d="M589.289,716a33.671,33.671,0,0,1-12.5-52.335A33.674,33.674,0,1,0,622.6,712.317,33.653,33.653,0,0,1,589.289,716Z" transform="translate(-280.895 -289.354)" fill="#144814"/>
</svg>
