<svg xmlns="http://www.w3.org/2000/svg" width="580.102" height="455.486" viewBox="0 0 580.102 455.486">
  <g id="Group_15" data-name="Group 15" transform="translate(0 -0.002)">
    <circle id="Ellipse_37" data-name="Ellipse 37" cx="53.519" cy="53.519" r="53.519" transform="translate(399.301 63.937)" fill="#6c63ff"/>
    <path id="Path_174" data-name="Path 174" d="M766.7,670.558V547.543a6.508,6.508,0,0,1,6.5-6.5h14.759a6.508,6.508,0,0,1,6.5,6.5V670.558a6.507,6.507,0,0,1-6.5,6.5H773.2a6.507,6.507,0,0,1-6.5-6.5Z" transform="translate(-309.949 -222.256)" fill="#2f2e41"/>
    <path id="Path_175" data-name="Path 175" d="M735.509,670.558V547.543a6.508,6.508,0,0,1,6.5-6.5h14.76a6.508,6.508,0,0,1,6.5,6.5V670.558a6.508,6.508,0,0,1-6.5,6.5h-14.76a6.507,6.507,0,0,1-6.5-6.5Z" transform="translate(-309.949 -222.256)" fill="#2f2e41"/>
    <path id="Path_176" data-name="Path 176" d="M723.346,555.005V446.061a40.031,40.031,0,0,1,40.031-40.031h0a40.031,40.031,0,0,1,40.031,40.031V555.005a6.5,6.5,0,0,1-6.5,6.5H729.846a6.5,6.5,0,0,1-6.5-6.5Z" transform="translate(-309.949 -222.256)" fill="#2f2e41"/>
    <path id="Path_177" data-name="Path 177" d="M717.573,363.37l.056-2c-3.721-.1-7-.337-9.466-2.138a6.148,6.148,0,0,1-2.381-4.528,3.514,3.514,0,0,1,1.153-2.895c1.636-1.382,4.269-.935,6.188-.055l1.655.759-3.173-23.19-1.981.271,2.7,19.727c-2.607-.767-5.023-.437-6.678.961a5.471,5.471,0,0,0-1.86,4.492,8.132,8.132,0,0,0,3.2,6.073C710.151,363.162,714.266,363.277,717.573,363.37Z" transform="translate(-309.949 -222.256)" fill="#2f2e41"/>
    <rect id="Rectangle_162" data-name="Rectangle 162" width="10.771" height="2" transform="translate(413.103 109.04)" fill="#2f2e41"/>
    <path id="Path_178" data-name="Path 178" d="M783.941,554.93a6.454,6.454,0,0,1-2.092-4.514l-5.1-122.908a6.5,6.5,0,0,1,6.225-6.764l14.747-.612a6.506,6.506,0,0,1,6.763,6.225l5.1,122.909a6.508,6.508,0,0,1-6.225,6.764l-14.747.611a6.564,6.564,0,0,1-1.4-.091A6.452,6.452,0,0,1,783.941,554.93Z" transform="translate(-309.949 -222.256)" fill="#6c63ff"/>
    <path id="Path_179" data-name="Path 179" d="M802.759,471.744h-24a6.507,6.507,0,0,1-6.5-6.5v-34a18.5,18.5,0,0,1,37,0v34A6.507,6.507,0,0,1,802.759,471.744Z" transform="translate(-309.949 -222.256)" fill="#2f2e41"/>
    <path id="Path_180" data-name="Path 180" d="M648.638,517.293l-9.409-11.372a6.508,6.508,0,0,1,.865-9.152l94.781-78.416a6.5,6.5,0,0,1,9.151.864l9.409,11.373a6.5,6.5,0,0,1-.865,9.151L657.79,518.157a6.487,6.487,0,0,1-9.152-.864Z" transform="translate(-309.949 -222.256)" fill="#6c63ff"/>
    <path id="Path_181" data-name="Path 181" d="M718.535,466.217l-15.2-18.57a6.507,6.507,0,0,1,.912-9.147l26.308-21.538a18.5,18.5,0,1,1,23.438,28.63l-26.308,21.538a6.507,6.507,0,0,1-9.147-.912Z" transform="translate(-309.949 -222.256)" fill="#2f2e41"/>
    <path id="Path_182" data-name="Path 182" d="M776.187,348.773c2.787-4.656,4.968-9.786,3.933-15.3-.924-4.926-4.469-8.762-9.567-9.266-3.07-.3-6.125.516-9.123,1.05a34.248,34.248,0,0,1-7.448.482,36.994,36.994,0,0,1-14.451-3.664,35.469,35.469,0,0,1-19.056-22.331c-3.042-11.074-.783-23.649,6.44-32.663l-2.507-.662,3.264,10.724a1.515,1.515,0,0,0,2.2.9,51.664,51.664,0,0,1,40.2-6.427,48.948,48.948,0,0,1,11.031,4.243c1.7.906,3.221-1.683,1.514-2.59a54.7,54.7,0,0,0-42.915-3.288,52.215,52.215,0,0,0-11.345,5.472l2.2.9L727.3,265.62a1.512,1.512,0,0,0-2.507-.662,40.207,40.207,0,0,0-8.241,30.483,37.94,37.94,0,0,0,16.429,26.319,40.458,40.458,0,0,0,30.554,6.142c2.936-.564,6.265-1.372,9.146-.143a7.9,7.9,0,0,1,4.234,5.208c1.632,5.531-1.145,10.784-3.982,15.383Z" transform="translate(-309.949 -222.256)" fill="#2f2e41"/>
    <path id="Path_183" data-name="Path 183" d="M749.376,454h-.037a2.466,2.466,0,0,1-2.4-1.927l.2-41.668a2.535,2.535,0,0,1,1.4-2.853c7.253-3.407,14.749-3.865,22.913-1.4a2.5,2.5,0,0,1,1.706,3.042L751.79,452.136A2.465,2.465,0,0,1,749.376,454Z" transform="translate(-309.949 -222.256)" fill="#ccc"/>
    <path id="Path_184" data-name="Path 184" d="M889.051,677.744h-248a1,1,0,0,1,0-2h248a1,1,0,0,1,0,2Z" transform="translate(-309.949 -222.256)" fill="#3f3d56"/>
    <path id="Path_185" data-name="Path 185" d="M645.949,533.538h-186a9.511,9.511,0,0,1-9.5-9.5v-138a9.511,9.511,0,0,1,9.5-9.5h186a9.511,9.511,0,0,1,9.5,9.5v138A9.511,9.511,0,0,1,645.949,533.538Z" transform="translate(-309.949 -222.256)" fill="#fff"/>
    <path id="Path_186" data-name="Path 186" d="M484.027,466.948l35.971.59H540.95a3.5,3.5,0,0,0,3.5-3.5v-1.223l-18.042-19.4a3.5,3.5,0,0,0-5.038-.091l-17.744,17.744a2.5,2.5,0,0,1-3.534,0l-2.626-2.622a3.5,3.5,0,0,0-4.949,0Z" transform="translate(-309.949 -222.256)" fill="#6c63ff"/>
    <path id="Path_187" data-name="Path 187" d="M645.949,533.538h-186a9.511,9.511,0,0,1-9.5-9.5v-138a9.511,9.511,0,0,1,9.5-9.5h186a9.511,9.511,0,0,1,9.5,9.5v138A9.511,9.511,0,0,1,645.949,533.538Zm-186-154a6.507,6.507,0,0,0-6.5,6.5v138a6.508,6.508,0,0,0,6.5,6.5h186a6.507,6.507,0,0,0,6.5-6.5v-138a6.507,6.507,0,0,0-6.5-6.5Z" transform="translate(-309.949 -222.256)" fill="#3f3d56"/>
    <path id="Path_188" data-name="Path 188" d="M624.949,401.038h-144a3,3,0,1,1,0-6h144a3,3,0,0,1,0,6Z" transform="translate(-309.949 -222.256)" fill="#3f3d56"/>
    <path id="Path_189" data-name="Path 189" d="M625.449,417.538h-144a3,3,0,0,1,0-6h144a3,3,0,0,1,0,6Z" transform="translate(-309.949 -222.256)" fill="#3f3d56"/>
    <path id="Path_190" data-name="Path 190" d="M625.949,434.038h-69a3,3,0,1,1,0-6h69a3,3,0,0,1,0,6Z" transform="translate(-309.949 -222.256)" fill="#3f3d56"/>
    <path id="Path_191" data-name="Path 191" d="M626.449,450.538h-69a3,3,0,1,1,0-6h69a3,3,0,0,1,0,6Z" transform="translate(-309.949 -222.256)" fill="#3f3d56"/>
    <path id="Path_192" data-name="Path 192" d="M626.949,467.038h-69a3,3,0,1,1,0-6h69a3,3,0,0,1,0,6Z" transform="translate(-309.949 -222.256)" fill="#3f3d56"/>
    <path id="Path_193" data-name="Path 193" d="M627.449,483.538h-144a3,3,0,1,1,0-6h144a3,3,0,0,1,0,6Z" transform="translate(-309.949 -222.256)" fill="#3f3d56"/>
    <path id="Path_194" data-name="Path 194" d="M627.949,500.038h-144a3,3,0,1,1,0-6h144a3,3,0,0,1,0,6Z" transform="translate(-309.949 -222.256)" fill="#3f3d56"/>
    <path id="Path_195" data-name="Path 195" d="M628.449,516.538h-144a3,3,0,1,1,0-6h144a3,3,0,0,1,0,6Z" transform="translate(-309.949 -222.256)" fill="#3f3d56"/>
    <path id="Path_196" data-name="Path 196" d="M540.949,468.038h-56a4.917,4.917,0,0,1-2.384-.61h-.014l-.254-.153a4.98,4.98,0,0,1-2.348-4.237v-30a5.006,5.006,0,0,1,5-5h56a5.006,5.006,0,0,1,5,5v30a5.006,5.006,0,0,1-5,5ZM483.234,465.5l.144.088a2.906,2.906,0,0,0,1.571.452h56a3,3,0,0,0,3-3v-30a3,3,0,0,0-3-3h-56a3,3,0,0,0-3,3v30a2.987,2.987,0,0,0,1.286,2.459Z" transform="translate(-309.949 -222.256)" fill="#3f3d56"/>
    <path id="Path_197" data-name="Path 197" d="M312.093,555.619a2.722,2.722,0,0,0-1.149,4.763l12.027,9.873a1.77,1.77,0,0,1,.429.529,1.663,1.663,0,0,1,.167.655l.855,18.232a2.661,2.661,0,0,0,2.108,2.527l.021,0a2.657,2.657,0,0,0,2.975-1.363l4.27-7.9a1.637,1.637,0,0,1,1.457-.847,1.582,1.582,0,0,1,1.163.508l20.847,21.982a2.717,2.717,0,0,0,4.408-.668l30.015-60.953a2.72,2.72,0,0,0-3.015-3.864l-.982.211-75.6,16.307Zm-.462,3.924a1.635,1.635,0,0,1,.694-2.859l75.572-16.3,1.006-.217a1.635,1.635,0,0,1,1.81,2.316L360.7,603.434a1.632,1.632,0,0,1-2.645.4l-20.847-21.982a2.607,2.607,0,0,0-.71-.541l52.412-38.5a1.089,1.089,0,0,0-.908-1.938.947.947,0,0,0-.175.061l-63.743,28.909a2.682,2.682,0,0,0-.423-.428l-12.027-9.873Z" transform="translate(-309.949 -222.256)" fill="#e6e6e6"/>
    <path id="Path_198" data-name="Path 198" d="M312.093,555.619a2.722,2.722,0,0,0-1.149,4.763l12.027,9.873a1.77,1.77,0,0,1,.429.529,1.663,1.663,0,0,1,.167.655l.855,18.232a2.661,2.661,0,0,0,2.108,2.527l.021,0a2.657,2.657,0,0,0,2.975-1.363l4.27-7.9a1.637,1.637,0,0,1,1.457-.847,1.582,1.582,0,0,1,1.163.508l20.847,21.982a2.717,2.717,0,0,0,4.408-.668l30.015-60.953a2.72,2.72,0,0,0-3.015-3.864l-.982.211-75.6,16.307Zm-.462,3.924a1.635,1.635,0,0,1,.694-2.859l75.572-16.3,1.006-.217a1.635,1.635,0,0,1,1.81,2.316L360.7,603.434a1.632,1.632,0,0,1-2.645.4l-20.847-21.982a2.606,2.606,0,0,0-.71-.541,2.645,2.645,0,0,0-1.235-.307c-.061,0-.123,0-.185,0h-.005a2.713,2.713,0,0,0-2.229,1.417l-4.271,7.9a1.583,1.583,0,0,1-1.789.813l-.011,0a1.579,1.579,0,0,1-1.263-1.516l-.855-18.232a2.574,2.574,0,0,0-.086-.57v-.005a2.606,2.606,0,0,0-.2-.517,2.529,2.529,0,0,0-.289-.454,2.679,2.679,0,0,0-.423-.428l-12.027-9.873Z" transform="translate(-309.949 -222.256)" fill="#ccc"/>
    <path id="Path_199" data-name="Path 199" d="M324.082,569.844l63.744-28.909a.951.951,0,0,1,.175-.061,1.089,1.089,0,0,1,.908,1.938l-52.412,38.5-.925.681-.641-.877.141-.108h.005l53.185-39.075-63.693,28.881v.005l-.277.122-.449-.99Z" transform="translate(-309.949 -222.256)" fill="#ccc"/>
    <path id="Path_200" data-name="Path 200" d="M691.806,586.619l-75.6-16.307-.982-.211a2.72,2.72,0,0,0-3.015,3.864l30.015,60.953a2.717,2.717,0,0,0,4.408.668L667.482,613.6a1.583,1.583,0,0,1,1.163-.508,1.637,1.637,0,0,1,1.457.847l4.27,7.9a2.657,2.657,0,0,0,2.975,1.363l.021,0a2.66,2.66,0,0,0,2.108-2.527l.855-18.232a1.662,1.662,0,0,1,.167-.655,1.768,1.768,0,0,1,.429-.529l12.027-9.873a2.722,2.722,0,0,0-1.149-4.763Zm.462,3.924-12.027,9.873a2.685,2.685,0,0,0-.423.428l-63.744-28.909a.95.95,0,0,0-.175-.061,1.089,1.089,0,0,0-.908,1.938l52.412,38.5a2.608,2.608,0,0,0-.71.541l-20.847,21.982a1.631,1.631,0,0,1-2.645-.4l-30.014-60.953a1.635,1.635,0,0,1,1.81-2.316l1.006.217,75.573,16.3a1.635,1.635,0,0,1,.694,2.859Z" transform="translate(-309.949 -222.256)" fill="#e6e6e6"/>
    <path id="Path_201" data-name="Path 201" d="M691.806,586.619l-75.6-16.307-.982-.211a2.72,2.72,0,0,0-3.015,3.864l30.015,60.953a2.717,2.717,0,0,0,4.408.668L667.482,613.6a1.583,1.583,0,0,1,1.163-.508,1.637,1.637,0,0,1,1.457.847l4.27,7.9a2.657,2.657,0,0,0,2.975,1.363l.021,0a2.66,2.66,0,0,0,2.108-2.527l.855-18.232a1.662,1.662,0,0,1,.167-.655,1.768,1.768,0,0,1,.429-.529l12.027-9.873a2.722,2.722,0,0,0-1.149-4.763Zm.462,3.924-12.027,9.873a2.685,2.685,0,0,0-.423.428,2.529,2.529,0,0,0-.289.454,2.606,2.606,0,0,0-.2.517v.005a2.573,2.573,0,0,0-.086.57l-.855,18.232a1.579,1.579,0,0,1-1.263,1.516l-.011,0a1.583,1.583,0,0,1-1.789-.813l-4.271-7.9a2.713,2.713,0,0,0-2.229-1.417h-.005c-.062,0-.124-.006-.185,0a2.645,2.645,0,0,0-1.235.307,2.608,2.608,0,0,0-.71.541l-20.847,21.982a1.631,1.631,0,0,1-2.645-.4l-30.015-60.953a1.635,1.635,0,0,1,1.81-2.316l1.006.217,75.573,16.3a1.635,1.635,0,0,1,.694,2.859Z" transform="translate(-309.949 -222.256)" fill="#ccc"/>
    <path id="Path_202" data-name="Path 202" d="M680.058,600.952l-.449.99-.278-.122v-.005l-63.693-28.881,53.185,39.075h.005l.141.108-.641.877-.925-.681-52.412-38.5a1.089,1.089,0,0,1,.908-1.938.955.955,0,0,1,.175.062l63.744,28.909Z" transform="translate(-309.949 -222.256)" fill="#ccc"/>
    <path id="Path_203" data-name="Path 203" d="M394.7,223.412a3.758,3.758,0,0,0-6.414,1.969l-3.136,20.707a2.352,2.352,0,0,1-.32.861,2.258,2.258,0,0,1-.653.646l-20.846,13.6a3.545,3.545,0,0,0-1.487,4.18l.009.028a3.642,3.642,0,0,0,3.7,2.49l12.3-.534a2.255,2.255,0,0,1,2.024,1.1,2.094,2.094,0,0,1,.222,1.693L368.945,309.4a3.581,3.581,0,0,0,.718,3.312,3.777,3.777,0,0,0,3.175,1.313l92.868-7.514a3.765,3.765,0,0,0,2.253-.979,3.61,3.61,0,0,0,.167-5.172l-.941-.988-72.479-75.962Zm-4.942,2.181a2.186,2.186,0,0,1,.684-1.277,2.273,2.273,0,0,1,3.169.1l72.456,75.939.965,1.01a2.181,2.181,0,0,1,.592,1.308,2.213,2.213,0,0,1-2.041,2.382l-92.868,7.514a2.28,2.28,0,0,1-.779-.073,2.19,2.19,0,0,1-1.557-2.7l11.164-39.259a3.445,3.445,0,0,0,.136-1.194l82.243,33.86a1.515,1.515,0,0,0,1.655-.316,1.445,1.445,0,0,0-.014-2.072,1.3,1.3,0,0,0-.2-.16l-78.949-53.57a3.555,3.555,0,0,0,.2-.784l3.136-20.707Z" transform="translate(-309.949 -222.256)" fill="#e6e6e6"/>
    <path id="Path_204" data-name="Path 204" d="M394.7,223.412a3.758,3.758,0,0,0-6.414,1.969l-3.136,20.707a2.352,2.352,0,0,1-.32.861,2.258,2.258,0,0,1-.653.646l-20.846,13.6a3.545,3.545,0,0,0-1.487,4.18l.009.028a3.642,3.642,0,0,0,3.7,2.49l12.3-.534a2.255,2.255,0,0,1,2.024,1.1,2.094,2.094,0,0,1,.222,1.693L368.945,309.4a3.581,3.581,0,0,0,.718,3.312,3.777,3.777,0,0,0,3.175,1.313l92.868-7.514a3.765,3.765,0,0,0,2.253-.979,3.61,3.61,0,0,0,.167-5.172l-.941-.988-72.479-75.962Zm-4.942,2.181a2.186,2.186,0,0,1,.684-1.277,2.273,2.273,0,0,1,3.169.1l72.456,75.939.965,1.01a2.181,2.181,0,0,1,.592,1.308,2.213,2.213,0,0,1-2.041,2.382l-92.868,7.514a2.279,2.279,0,0,1-.779-.073,2.19,2.19,0,0,1-1.557-2.7l11.164-39.259a3.443,3.443,0,0,0,.136-1.193,3.511,3.511,0,0,0-.51-1.638c-.04-.072-.087-.141-.135-.211l0-.007a3.744,3.744,0,0,0-3.238-1.593l-12.31.536a2.169,2.169,0,0,1-2.217-1.5l0-.014a2.1,2.1,0,0,1,.893-2.506l20.846-13.6a3.513,3.513,0,0,0,.611-.493l.007,0a3.519,3.519,0,0,0,.469-.585,3.374,3.374,0,0,0,.33-.648,3.553,3.553,0,0,0,.2-.784l3.136-20.707Z" transform="translate(-309.949 -222.256)" fill="#ccc"/>
    <path id="Path_205" data-name="Path 205" d="M386.422,247.083l78.949,53.57a1.294,1.294,0,0,1,.2.16,1.445,1.445,0,0,1,.322,1.623,1.5,1.5,0,0,1-1.963.765l-82.243-33.86-1.453-.6.58-1.346.226.088,0,.007L464.5,301.847l-78.881-53.53-.007,0-.34-.236.849-1.2Z" transform="translate(-309.949 -222.256)" fill="#ccc"/>
  </g>
</svg>
