<svg xmlns="http://www.w3.org/2000/svg" width="645.844" height="542.339" viewBox="0 0 645.844 542.339">
  <g id="Group_17" data-name="Group 17" transform="translate(0 0)">
    <ellipse id="Ellipse_52" data-name="Ellipse 52" cx="70" cy="5.339" rx="70" ry="5.339" transform="translate(497 531.661)" fill="#e6e6e6"/>
    <ellipse id="Ellipse_53" data-name="Ellipse 53" cx="70" cy="5.339" rx="70" ry="5.339" transform="translate(156 531.661)" fill="#e6e6e6"/>
    <path id="Path_237" data-name="Path 237" d="M814.774,650.831h-476a7.508,7.508,0,0,1-7.5-7.5v-457a7.508,7.508,0,0,1,7.5-7.5h476a7.508,7.508,0,0,1,7.5,7.5v457a7.508,7.508,0,0,1-7.5,7.5Zm-476-469a4.5,4.5,0,0,0-4.5,4.5v457a4.505,4.505,0,0,0,4.5,4.5h476a4.5,4.5,0,0,0,4.5-4.5v-457a4.5,4.5,0,0,0-4.5-4.5Z" transform="translate(-278.274 -178.831)" fill="#b8b8b8"/>
    <path id="Path_238" data-name="Path 238" d="M366.274,218.831a3,3,0,0,0-3,3v124a3,3,0,0,0,3,3h124a3,3,0,0,0,3-3v-124a3,3,0,0,0-3-3Z" transform="translate(-278.274 -178.831)" fill="#b8b8b8"/>
    <path id="Path_40" data-name="Path 40" d="M561.314,308.581a3.625,3.625,0,1,0,0,7.25H732.192a3.625,3.625,0,1,0,.119-7.249h-171Z" transform="translate(-278.274 -178.831)" fill="#b8b8b8"/>
    <path id="Path_40-2" data-name="Path 40" d="M561.314,275.581a3.625,3.625,0,1,0,0,7.249h48.878a3.625,3.625,0,0,0,.119-7.249h-49Z" transform="translate(-278.274 -178.831)" fill="#b8b8b8"/>
    <path id="Path_40-3" data-name="Path 40" d="M561.314,342.581a3.625,3.625,0,1,0,0,7.249H732.192a3.625,3.625,0,1,0,.119-7.249h-171Z" transform="translate(-278.274 -178.831)" fill="#b8b8b8"/>
    <path id="Path_78" data-name="Path 78" d="M764.583,473.543H529.745c-4.578,0-8.288-2.643-8.293-5.9V416.6c.005-3.257,3.715-5.9,8.293-5.9H764.583c4.578,0,8.288,2.643,8.293,5.9v51.041C772.872,470.9,769.161,473.539,764.583,473.543Z" transform="translate(-278.274 -178.831)" fill="#b8b8b8"/>
    <path id="Path_78-2" data-name="Path 78" d="M605.583,597.543H370.745c-4.578,0-8.288-2.643-8.293-5.9V540.6c.005-3.257,3.715-5.9,8.293-5.9H605.583c4.578,0,8.288,2.643,8.293,5.9v51.041C613.872,594.9,610.161,597.539,605.583,597.543Z" transform="translate(-278.274 -178.831)" fill="#b8b8b8"/>
    <path id="Path_78-3" data-name="Path 78" d="M534.741,625.661H299.9c-4.578,0-8.288-2.643-8.293-5.9V568.719c.005-3.257,3.715-5.9,8.293-5.9H534.741c4.578,0,8.288,2.643,8.293,5.9V619.76C543.03,623.017,539.319,625.657,534.741,625.661ZM299.9,565.177c-2.747,0-4.973,1.586-4.976,3.54v51.041c0,1.954,2.229,3.538,4.976,3.54H534.741c2.747,0,4.973-1.586,4.976-3.54V568.719c0-1.954-2.229-3.538-4.976-3.54Z" transform="translate(-278.274 -178.831)" fill="#31200f"/>
    <circle id="Ellipse_54" data-name="Ellipse 54" cx="19" cy="19" r="19" transform="translate(322 269)" fill="#db9044"/>
    <circle id="Ellipse_55" data-name="Ellipse 55" cx="19" cy="19" r="19" transform="translate(37 396)" fill="#db9044"/>
    <path id="Path_40-4" data-name="Path 40" d="M660.314,453.206a3.625,3.625,0,1,0,0,7.249H796.192a3.625,3.625,0,1,0,.119-7.249h-136Z" transform="translate(-278.274 -178.831)" fill="#31200f"/>
    <path id="Path_40-5" data-name="Path 40" d="M660.314,473.206a3.625,3.625,0,1,0,0,7.249H796.192a3.625,3.625,0,1,0,.119-7.249h-136Z" transform="translate(-278.274 -178.831)" fill="#31200f"/>
    <path id="Path_40-6" data-name="Path 40" d="M375.314,580.206a3.625,3.625,0,1,0,0,7.25H511.192a3.625,3.625,0,1,0,.119-7.249h-136Z" transform="translate(-278.274 -178.831)" fill="#31200f"/>
    <path id="Path_40-7" data-name="Path 40" d="M375.314,600.206a3.625,3.625,0,1,0,0,7.25H511.192a3.625,3.625,0,1,0,.119-7.249h-136Z" transform="translate(-278.274 -178.831)" fill="#31200f"/>
    <circle id="Ellipse_56" data-name="Ellipse 56" cx="43.067" cy="43.067" r="43.067" transform="translate(525.906 432.864)" fill="#31200f"/>
    <rect id="Rectangle_163" data-name="Rectangle 163" width="13.084" height="23.442" transform="translate(575.515 509.73)" fill="#31200f"/>
    <rect id="Rectangle_164" data-name="Rectangle 164" width="13.084" height="23.442" transform="translate(549.347 509.73)" fill="#31200f"/>
    <ellipse id="Ellipse_57" data-name="Ellipse 57" cx="10.903" cy="4.089" rx="10.903" ry="4.089" transform="translate(566.792 529.356)" fill="#31200f"/>
    <ellipse id="Ellipse_58" data-name="Ellipse 58" cx="10.903" cy="4.089" rx="10.903" ry="4.089" transform="translate(540.625 528.81)" fill="#31200f"/>
    <circle id="Ellipse_59" data-name="Ellipse 59" cx="14.719" cy="14.719" r="14.719" transform="translate(553.164 450.308)" fill="#fff"/>
    <circle id="Ellipse_60" data-name="Ellipse 60" cx="4.906" cy="4.906" r="4.906" transform="translate(562.977 460.121)" fill="#3f3d56"/>
    <path id="Path_239" data-name="Path 239" d="M889.024,614.71c3.477-15.574-7.639-31.31-24.829-35.149s-33.944,5.675-37.422,21.249,7.915,21.318,25.1,25.156S885.547,630.284,889.024,614.71Z" transform="translate(-278.274 -178.831)" fill="#b8b8b8"/>
    <path id="Path_240" data-name="Path 240" d="M388.584,368.79a42.83,42.83,0,0,1-4.43,19.04c-.33.68-.68,1.34-1.05,2h-75.17c-.37-.66-.72-1.32-1.05-2a43.071,43.071,0,1,1,81.7-19.04Z" transform="translate(-278.274 -178.831)" fill="#31200f"/>
    <circle id="Ellipse_61" data-name="Ellipse 61" cx="14.719" cy="14.719" r="14.719" transform="translate(53.617 164.333)" fill="#fff"/>
    <circle id="Ellipse_62" data-name="Ellipse 62" cx="4.906" cy="4.906" r="4.906" transform="translate(63.43 174.146)" fill="#3f3d56"/>
    <path id="Path_241" data-name="Path 241" d="M303.744,328.735c-3.477-15.574,7.639-31.31,24.829-35.149s33.944,5.675,37.422,21.249-7.915,21.318-25.1,25.156S307.221,344.308,303.744,328.735Z" transform="translate(-278.274 -178.831)" fill="#db9044"/>
    <path id="Path_242" data-name="Path 242" d="M407.274,255.831h-124a5,5,0,0,0-5,5v124a5,5,0,0,0,5,5h124a5,5,0,0,0,5-5v-124a5,5,0,0,0-5-5Zm3,129a3.009,3.009,0,0,1-3,3h-124a3.009,3.009,0,0,1-3-3v-124a3.009,3.009,0,0,1,3-3h124a3.009,3.009,0,0,1,3,3Z" transform="translate(-278.274 -178.831)" fill="#31200f"/>
    <ellipse id="Ellipse_63" data-name="Ellipse 63" cx="21.534" cy="6.76" rx="21.534" ry="6.76" transform="matrix(0.357, -0.934, 0.934, 0.357, 244.787, 461.112)" fill="#31200f"/>
    <circle id="Ellipse_64" data-name="Ellipse 64" cx="43.067" cy="43.067" r="43.067" transform="translate(169.574 511.541) rotate(-80.783)" fill="#31200f"/>
    <rect id="Rectangle_165" data-name="Rectangle 165" width="13.084" height="23.442" transform="translate(199.358 509.73)" fill="#31200f"/>
    <rect id="Rectangle_166" data-name="Rectangle 166" width="13.084" height="23.442" transform="translate(225.526 509.73)" fill="#31200f"/>
    <ellipse id="Ellipse_65" data-name="Ellipse 65" cx="10.903" cy="4.089" rx="10.903" ry="4.089" transform="translate(199.358 529.356)" fill="#31200f"/>
    <ellipse id="Ellipse_66" data-name="Ellipse 66" cx="10.903" cy="4.089" rx="10.903" ry="4.089" transform="translate(225.526 528.81)" fill="#31200f"/>
    <path id="Path_243" data-name="Path 243" d="M455.481,614.71C452,599.136,463.12,583.4,480.31,579.561s33.944,5.675,37.422,21.249-7.915,21.318-25.1,25.156S458.959,630.284,455.481,614.71Z" transform="translate(-278.274 -178.831)" fill="#db9044"/>
    <ellipse id="Ellipse_67" data-name="Ellipse 67" cx="6.76" cy="21.534" rx="6.76" ry="21.534" transform="translate(148.124 452.827) rotate(-64.626)" fill="#31200f"/>
    <circle id="Ellipse_68" data-name="Ellipse 68" cx="42.012" cy="42.012" r="42.012" transform="translate(539.956 302.631)" fill="#31200f"/>
    <rect id="Rectangle_167" data-name="Rectangle 167" width="12.763" height="22.868" transform="matrix(1, -0.005, 0.005, 1, 588.504, 377.583)" fill="#31200f"/>
    <rect id="Rectangle_168" data-name="Rectangle 168" width="12.763" height="22.868" transform="matrix(1, -0.005, 0.005, 1, 562.978, 377.702)" fill="#31200f"/>
    <ellipse id="Ellipse_69" data-name="Ellipse 69" cx="10.636" cy="3.989" rx="10.636" ry="3.989" transform="translate(555.618 404.861) rotate(-30.266)" fill="#31200f"/>
    <ellipse id="Ellipse_70" data-name="Ellipse 70" cx="10.636" cy="3.989" rx="10.636" ry="3.989" transform="translate(580.613 404.744) rotate(-30.266)" fill="#31200f"/>
    <circle id="Ellipse_71" data-name="Ellipse 71" cx="14.359" cy="14.359" r="14.359" transform="translate(566.496 319.653)" fill="#fff"/>
    <circle id="Ellipse_72" data-name="Ellipse 72" cx="4.786" cy="4.786" r="4.786" transform="translate(571.151 323.133)" fill="#3f3d56"/>
    <path id="Path_244" data-name="Path 244" d="M900.814,484.214c3.322-15.208-7.593-30.508-24.38-34.175s-33.087,5.69-36.408,20.9,7.818,20.759,24.6,24.426S897.492,499.422,900.814,484.214Z" transform="translate(-278.274 -178.831)" fill="#db9044"/>
    <ellipse id="Ellipse_73" data-name="Ellipse 73" cx="6.594" cy="21.006" rx="6.594" ry="21.006" transform="translate(516.174 321.273) rotate(-67.095)" fill="#31200f"/>
    <ellipse id="Ellipse_74" data-name="Ellipse 74" cx="6.594" cy="21.006" rx="6.594" ry="21.006" transform="translate(602.01 356.092) rotate(-67.095)" fill="#31200f"/>
    <path id="Path_245" data-name="Path 245" d="M868.733,541.781a9.572,9.572,0,1,1-19.145.108v-.019c-.025-5.287,4.256-6.4,9.543-6.426S868.708,536.494,868.733,541.781Z" transform="translate(-278.274 -178.831)" fill="#fff"/>
    <path id="Path_78-4" data-name="Path 78" d="M825.678,498.5H590.84c-4.578,0-8.288-2.643-8.293-5.9V441.554c.005-3.257,3.715-5.9,8.293-5.9H825.678c4.578,0,8.288,2.643,8.293,5.9V492.6C833.967,495.852,830.256,498.492,825.678,498.5ZM590.84,438.012c-2.747,0-4.973,1.586-4.976,3.54v51.041c0,1.954,2.229,3.538,4.976,3.54H825.678c2.747,0,4.973-1.586,4.976-3.54V441.554c0-1.954-2.229-3.538-4.976-3.54Z" transform="translate(-278.274 -178.831)" fill="#31200f"/>
  </g>
</svg>
