<svg id="Group_5" data-name="Group 5" xmlns="http://www.w3.org/2000/svg" width="768" height="728.858" viewBox="0 0 768 728.858">
  <path id="Path_63" data-name="Path 63" d="M682.884,258.518h-4V148.973a63.4,63.4,0,0,0-63.4-63.4H383.4a63.4,63.4,0,0,0-63.4,63.4V749.947a63.4,63.4,0,0,0,63.4,63.4H615.483a63.4,63.4,0,0,0,63.4-63.4V336.494h4Z" transform="translate(-216 -85.571)" fill="#e6e6e6"/>
  <path id="Path_64" data-name="Path 64" d="M618.041,102.066H587.746a22.495,22.495,0,0,1-20.827,30.991H433.96a22.495,22.495,0,0,1-20.827-30.99h-28.3a47.348,47.348,0,0,0-47.348,47.348V749.506a47.348,47.348,0,0,0,47.348,47.348h233.2a47.348,47.348,0,0,0,47.348-47.348h0V149.414a47.348,47.348,0,0,0-47.348-47.348Z" transform="translate(-216 -85.571)" fill="#fff"/>
  <path id="Path_65" data-name="Path 65" d="M983,814.429H217a1,1,0,0,1,0-2H983a1,1,0,0,1,0,2Z" transform="translate(-216 -85.571)" fill="#236b87"/>
  <path id="Path_66" data-name="Path 66" d="M642.82,268.075H359.946a5.245,5.245,0,0,1-5.238-5.238v-70.17a5.245,5.245,0,0,1,5.238-5.238H642.82a5.245,5.245,0,0,1,5.238,5.238v70.169a5.245,5.245,0,0,1-5.239,5.239ZM359.946,189.524a3.146,3.146,0,0,0-3.143,3.143v70.169a3.146,3.146,0,0,0,3.143,3.143H642.82a3.146,3.146,0,0,0,3.143-3.143V192.667a3.146,3.146,0,0,0-3.143-3.143Z" transform="translate(-216 -85.571)" fill="#236b87"/>
  <path id="Path_67" data-name="Path 67" d="M642.82,545.71H359.946a5.245,5.245,0,0,1-5.238-5.238V410.585a5.245,5.245,0,0,1,5.238-5.238H642.82a5.244,5.244,0,0,1,5.238,5.238V540.471A5.245,5.245,0,0,1,642.82,545.71ZM359.946,407.442a3.146,3.146,0,0,0-3.143,3.143V540.471a3.146,3.146,0,0,0,3.143,3.143H642.82a3.146,3.146,0,0,0,3.143-3.143V410.585a3.146,3.146,0,0,0-3.143-3.143Z" transform="translate(-216 -85.571)" fill="#236b87"/>
  <path id="Path_68" data-name="Path 68" d="M640.725,377.033H515a5.245,5.245,0,0,1-5.238-5.238V301.626A5.245,5.245,0,0,1,515,296.388H640.725a5.245,5.245,0,0,1,5.238,5.238V371.8a5.245,5.245,0,0,1-5.238,5.238ZM515,298.483a3.146,3.146,0,0,0-3.143,3.143V371.8A3.146,3.146,0,0,0,515,374.938H640.725a3.146,3.146,0,0,0,3.143-3.143V301.626a3.146,3.146,0,0,0-3.143-3.143Z" transform="translate(-216 -85.571)" fill="#e6e6e6"/>
  <path id="Path_69" data-name="Path 69" d="M485.668,715.434H359.946a5.245,5.245,0,0,1-5.238-5.238V579.261a5.245,5.245,0,0,1,5.238-5.238H485.668a5.245,5.245,0,0,1,5.238,5.238V710.2a5.245,5.245,0,0,1-5.238,5.239ZM359.946,576.118a3.147,3.147,0,0,0-3.143,3.143V710.2a3.146,3.146,0,0,0,3.143,3.143H485.668a3.146,3.146,0,0,0,3.143-3.143V579.261a3.146,3.146,0,0,0-3.143-3.143Z" transform="translate(-216 -85.571)" fill="#e6e6e6"/>
  <path id="Path_70" data-name="Path 70" d="M640.725,715.434H515a5.245,5.245,0,0,1-5.238-5.238V579.261A5.244,5.244,0,0,1,515,574.023H640.725a5.245,5.245,0,0,1,5.238,5.238V710.2a5.245,5.245,0,0,1-5.238,5.239ZM515,576.118a3.146,3.146,0,0,0-3.143,3.143V710.2A3.146,3.146,0,0,0,515,713.338H640.725a3.146,3.146,0,0,0,3.143-3.143V579.261a3.146,3.146,0,0,0-3.143-3.143Z" transform="translate(-216 -85.571)" fill="#e6e6e6"/>
  <circle id="Ellipse_14" data-name="Ellipse 14" cx="21.338" cy="21.338" r="21.338" transform="translate(164.465 344.448)" fill="#35bbee"/>
  <path id="Path_71" data-name="Path 71" d="M451.085,437.133a3.556,3.556,0,1,0,0,7.113h167.66a3.556,3.556,0,0,0,0-7.113Z" transform="translate(-216 -85.571)" fill="#35bbee"/>
  <path id="Path_72" data-name="Path 72" d="M451.085,458.471a3.556,3.556,0,0,0-.015,7.113h72.159a3.556,3.556,0,0,0,0-7.113Z" transform="translate(-216 -85.571)" fill="#35bbee"/>
  <path id="Path_73" data-name="Path 73" d="M385.437,492.585c-2.705,0-4.907,1.6-4.907,3.556s2.2,3.556,4.907,3.556H616.755c2.705,0,4.907-1.6,4.907-3.556s-2.2-3.556-4.907-3.556Z" transform="translate(-216 -85.571)" fill="#ccc"/>
  <path id="Path_74" data-name="Path 74" d="M385.437,513.924c-2.705,0-4.907,1.6-4.907,3.556s2.2,3.556,4.907,3.556H616.755c2.705,0,4.907-1.6,4.907-3.556s-2.2-3.556-4.907-3.556Z" transform="translate(-216 -85.571)" fill="#ccc"/>
  <circle id="Ellipse_15" data-name="Ellipse 15" cx="21.338" cy="21.338" r="21.338" transform="translate(166.561 118.149)" fill="#35bbee"/>
  <path id="Path_75" data-name="Path 75" d="M453.181,210.834a3.556,3.556,0,1,0,0,7.113H620.84a3.556,3.556,0,0,0,.015-7.113H453.181Z" transform="translate(-216 -85.571)" fill="#35bbee"/>
  <path id="Path_76" data-name="Path 76" d="M453.181,232.172a3.556,3.556,0,1,0,0,7.113h72.144a3.556,3.556,0,0,0,.015-7.113H453.181Z" transform="translate(-216 -85.571)" fill="#35bbee"/>
  <path id="Path_77" data-name="Path 77" d="M485.557,377.046H367.619l27.755-48.074a5.668,5.668,0,0,1,9.817,0l11.857,20.536,20.16-34.918a7.1,7.1,0,0,1,12.291,0Zm-114.309-2.1h110.68l-34.245-59.313a5,5,0,0,0-8.661,0L417.047,353.7,403.376,330.02a3.572,3.572,0,0,0-6.187,0Z" transform="translate(-216 -85.571)" fill="#e6e6e6"/>
  <path id="Path_78" data-name="Path 78" d="M636.423,377.046H518.485l27.755-48.074a5.668,5.668,0,0,1,9.817,0l11.857,20.536,20.16-34.918a7.1,7.1,0,0,1,12.291,0Zm-114.309-2.1h110.68l-34.245-59.313a5,5,0,0,0-8.661,0L567.913,353.7,554.242,330.02a3.572,3.572,0,0,0-6.187,0Z" transform="translate(-216 -85.571)" fill="#e6e6e6"/>
  <path id="Path_79" data-name="Path 79" d="M485.668,377.033H359.946a5.245,5.245,0,0,1-5.238-5.238V301.626a5.245,5.245,0,0,1,5.238-5.238H485.668a5.245,5.245,0,0,1,5.238,5.238V371.8a5.245,5.245,0,0,1-5.238,5.238Zm-125.722-78.55a3.146,3.146,0,0,0-3.143,3.143V371.8a3.146,3.146,0,0,0,3.143,3.143H485.668a3.146,3.146,0,0,0,3.143-3.143V301.626a3.146,3.146,0,0,0-3.143-3.143Z" transform="translate(-216 -85.571)" fill="#e6e6e6"/>
  <path id="Path_80" data-name="Path 80" d="M386.735,601.024a3.556,3.556,0,0,0,0,7.113h72.144a3.556,3.556,0,1,0,0-7.113Z" transform="translate(-216 -85.571)" fill="#e6e6e6"/>
  <path id="Path_81" data-name="Path 81" d="M386.735,621.977a3.556,3.556,0,1,0,0,7.113h72.144a3.556,3.556,0,0,0,0-7.113Z" transform="translate(-216 -85.571)" fill="#e6e6e6"/>
  <path id="Path_82" data-name="Path 82" d="M422.807,688.433a22.386,22.386,0,1,1,22.386-22.386h0A22.411,22.411,0,0,1,422.807,688.433Zm0-42.677A20.291,20.291,0,1,0,443.1,666.047h0a20.314,20.314,0,0,0-20.291-20.291Z" transform="translate(-216 -85.571)" fill="#e6e6e6"/>
  <path id="Path_83" data-name="Path 83" d="M613.936,688.433a3.556,3.556,0,0,0,0-7.113H541.792a3.556,3.556,0,1,0,0,7.113Z" transform="translate(-216 -85.571)" fill="#e6e6e6"/>
  <path id="Path_84" data-name="Path 84" d="M613.936,667.479a3.556,3.556,0,0,0,0-7.113H541.792a3.556,3.556,0,1,0,0,7.113Z" transform="translate(-216 -85.571)" fill="#e6e6e6"/>
  <path id="Path_85" data-name="Path 85" d="M577.864,601.024a22.386,22.386,0,1,1-22.386,22.386h0A22.411,22.411,0,0,1,577.864,601.024Zm0,42.677a20.291,20.291,0,1,0-20.29-20.291h0a20.314,20.314,0,0,0,20.29,20.291Z" transform="translate(-216 -85.571)" fill="#e6e6e6"/>
  <path id="Path_86" data-name="Path 86" d="M589.987,713.726H573.8l-7.7-62.434h23.89Z" fill="#ffb8b8"/>
  <path id="Path_87" data-name="Path 87" d="M557.47,709.1h35.985v19.655H542.583v-4.768A14.887,14.887,0,0,1,557.47,709.1Z" fill="#17495b"/>
  <path id="Path_88" data-name="Path 88" d="M654.681,713.726H638.495l-7.7-62.434h23.89Z" fill="#ffb8b8"/>
  <path id="Path_89" data-name="Path 89" d="M622.165,709.1H658.15v19.655H607.278v-4.768A14.887,14.887,0,0,1,622.165,709.1Z" fill="#17495b"/>
  <path id="Path_90" data-name="Path 90" d="M777.786,619.314a12.38,12.38,0,0,0-1.067-18.954l6.935-27.428-15.64-8.279-9.248,38.871a12.447,12.447,0,0,0,19.022,15.79Z" transform="translate(-216 -85.571)" fill="#ffb8b8"/>
  <path id="Path_91" data-name="Path 91" d="M660.438,485.836l-1.32,92.421L657.8,699.724l-29.046-2.641L614.228,529.406,595.744,697.083H565.756l-3.02-169L573.3,491.117Z" fill="#17495b"/>
  <path id="Path_92" data-name="Path 92" d="M786.4,577.252l-.425-.192,16.554-113.227-8.416-34.223a7.49,7.49,0,0,1,4.642-8.8l15.142-5.678,5.349-14.711,42.206,4.548,1.038,11.5c4.574,1.467,42.237,14.01,39.638,28.3-2.565,14.107-17.709,58.489-18.478,60.738L881,569.157l-.326.163c-.393.2-29.484,14.5-61.089,14.5C808.458,583.817,797.01,582.042,786.4,577.252Z" transform="translate(-216 -85.571)" fill="#236b87"/>
  <path id="Path_93" data-name="Path 93" d="M758.217,589.137l13.307-85.162c.079-.5,7.952-50.355,10.563-66.02,2.7-16.173,15.216-16.36,15.342-16.36h6.89l8.059,36.265L796.5,530.624l-14.647,60.3Z" transform="translate(-216 -85.571)" fill="#236b87"/>
  <path id="Path_94" data-name="Path 94" d="M844.529,580.732a12.381,12.381,0,0,1,15.115-11.486l16.372-23.073,16.448,6.529-23.578,32.258a12.447,12.447,0,0,1-24.357-4.23Z" transform="translate(-216 -85.571)" fill="#ffb8b8"/>
  <path id="Path_95" data-name="Path 95" d="M862.489,560.89,891.6,511.933l-11.86-31.625,16.152-43.074.6.256c.391.167,9.568,4.263,10.929,18.93l18.562,58.337-49.539,64.267Z" transform="translate(-216 -85.571)" fill="#236b87"/>
  <circle id="Ellipse_16" data-name="Ellipse 16" cx="30.389" cy="30.389" r="30.389" transform="translate(581.456 289.274) rotate(-61.337)" fill="#ffb8b8"/>
  <path id="Path_96" data-name="Path 96" d="M818.3,347.951c3.146,3.723,8.469,4.773,13.38,5.2,9.974.875,24.476-.544,34.223-2.794.7,6.742-1.2,14.012,2.77,19.559a90.8,90.8,0,0,0,3.226-20.584c.12-2.986.073-6.075-1.14-8.816s-3.86-5.068-6.907-5.092a17.311,17.311,0,0,1,7.722-3.3l-9.649-4.849,2.478-2.544-17.469-1.069,5.06-3.214A109.716,109.716,0,0,0,829,319.724c-3.56.262-7.282.763-10.166,2.826s-4.551,6.162-2.76,9.19a13.344,13.344,0,0,0-10.169,8.069c-1.286,3.26-1.168,6.881-.772,10.355a73.4,73.4,0,0,0,3.848,16.281" transform="translate(-216 -85.571)" fill="#17495b"/>
</svg>
