<svg xmlns="http://www.w3.org/2000/svg" width="808.465" height="567" viewBox="0 0 808.465 567">
  <g id="Group_4" data-name="Group 4" transform="translate(-0.005)">
    <path id="Path_25" data-name="Path 25" d="M664.875,720.92a90.429,90.429,0,0,1-19.39,10.58c-1.8.72-3.61,1.39-5.45,2H546.1c-.38-.66-.75-1.33-1.13-2-7.62-13.64-14.53-27.81-16.49-43.22-2.35-18.5,4.24-39.45,20.53-48.54a32.585,32.585,0,0,1,6.74-2.82c.97-.3,1.96-.54,2.96-.75a35.216,35.216,0,0,1,40.95,45.78c13.81-14.16,11.23-37.12,6.47-56.31s-10.55-40.55-.84-57.79c5.39-9.59,14.88-15.54,25.52-17.94.33-.07.66-.14.98-.2a51.406,51.406,0,0,1,36.93,6.47c20.36,12.82,30.81,37.15,34.2,60.97C708.4,655.49,696.295,698.27,664.875,720.92Z" transform="translate(-195.765 -166.5)" fill="#f2f2f2"/>
    <path id="Path_26" data-name="Path 26" d="M566.085,648.39a79.151,79.151,0,0,1,6.84,49.29,81.3,81.3,0,0,1-14.96,33.82c-.51.68-1.03,1.35-1.56,2h-3.71c.57-.65,1.13-1.32,1.66-2a76.553,76.553,0,0,0,1.4-94.58c.97-.3,1.96-.54,2.96-.75a79.958,79.958,0,0,1,7.37,12.22Z" transform="translate(-195.765 -166.5)" fill="#fff"/>
    <path id="Path_27" data-name="Path 27" d="M655.945,659.46a87.39,87.39,0,0,1-6.03,24.62,75.878,75.878,0,0,1-11.78,19.24c-9.93,11.95-23.07,20.94-37.34,26.92q-1.56.66-3.15,1.26c-1.84.72-3.7,1.38-5.57,2h-10.13c2.39-.6,4.77-1.27,7.12-2a118.818,118.818,0,0,0,16.31-6.43,90.565,90.565,0,0,0,33.88-27.79c9.49-13.1,13.68-28.85,14.4-44.86.76-17.13-1.47-34.57-5.38-51.24a214.821,214.821,0,0,0-18.07-49.23,1.545,1.545,0,0,1,.61-2.04,1.336,1.336,0,0,1,.98-.2,1.145,1.145,0,0,1,.76.64c.99,1.93,1.961,3.86,2.89,5.81a218.023,218.023,0,0,1,17.03,51.08C655.905,624.28,657.745,642.11,655.945,659.46Z" transform="translate(-195.765 -166.5)" fill="#fff"/>
    <path id="Path_28" data-name="Path 28" d="M238.235,449.5a42,42,0,1,1,42-42A42,42,0,0,1,238.235,449.5Zm0-82a40,40,0,1,0,40,40A40,40,0,0,0,238.235,367.5Z" transform="translate(-195.765 -166.5)" fill="#236b87"/>
    <path id="Path_29" data-name="Path 29" d="M408.235,314.5a42,42,0,1,1,42-42,42,42,0,0,1-42,42Zm0-82a40,40,0,1,0,40,40,40,40,0,0,0-40-40Z" transform="translate(-195.765 -166.5)" fill="#236b87"/>
    <path id="Path_30" data-name="Path 30" d="M590.235,250.5a42,42,0,1,1,42-42,42,42,0,0,1-42,42Zm0-82a40,40,0,1,0,40,40A40,40,0,0,0,590.235,168.5Z" transform="translate(-195.765 -166.5)" fill="#236b87"/>
    <path id="Path_31" data-name="Path 31" d="M784.235,316.5a42,42,0,1,1,42-42,42,42,0,0,1-42,42Zm0-82a40,40,0,1,0,40,40A40,40,0,0,0,784.235,234.5Z" transform="translate(-195.765 -166.5)" fill="#236b87"/>
    <path id="Path_32" data-name="Path 32" d="M962.235,417.5a42,42,0,1,1,42-42,42,42,0,0,1-42,42Zm0-82a40,40,0,1,0,40,40A40,40,0,0,0,962.235,335.5Z" transform="translate(-195.765 -166.5)" fill="#236b87"/>
    <path id="Path_33" data-name="Path 33" d="M432.235,261l5-1s-4.2,4.7-5,5h0a20.127,20.127,0,0,0,0,3c-9.6,41.2-45,23-45,23,12.9.3,14-5,14-5-7.5-1.1-9-6-9-6a3.09,3.09,0,0,0,4-1c-8.1-2.1-7-10-7-10a10.4,10.4,0,0,0,4.9,1.9c-.9-1.1-8.5-10.2-3.9-14.9,0,0,5.6,10,20.3,10.9l1-.2a7.849,7.849,0,0,1-.2-2.2,10.5,10.5,0,0,1,10.5-10.5c7,0,8.5,4,8.5,4l5-3C435.235,255,434.735,260,432.235,261Z" transform="translate(-195.765 -166.5)" fill="#17495b"/>
    <path id="Path_34" data-name="Path 34" d="M555.8,539.633l11.009,5.4,26.052-39.893-16.247-7.964Z" fill="#ffb8b8"/>
    <path id="Path_35" data-name="Path 35" d="M750.518,701.163,772.2,711.79h0a15.386,15.386,0,0,1,7.043,20.588l-.22.449-35.5-17.4Z" transform="translate(-195.765 -166.5)" fill="#17495b"/>
    <path id="Path_36" data-name="Path 36" d="M664.893,558.443h12.26l5.832-47.287H664.891Z" fill="#ffb8b8"/>
    <path id="Path_37" data-name="Path 37" d="M857.531,716.94h24.145a15.386,15.386,0,0,1,15.386,15.387v.5H857.531Z" transform="translate(-195.765 -166.5)" fill="#17495b"/>
    <circle id="Ellipse_12" data-name="Ellipse 12" cx="24.561" cy="24.561" r="24.561" transform="translate(613.998 182.967)" fill="#ffb8b8"/>
    <path id="Path_38" data-name="Path 38" d="M858.782,709.346a4.5,4.5,0,0,1-4.49-4.3L844.8,578.681a1.5,1.5,0,0,0-2.828-.647L781.238,693.976a4.523,4.523,0,0,1-6,1.937l-16.93-8.465a4.509,4.509,0,0,1-2.023-6.016L792.525,608l24-55.005c9.265-18.249,19.1-27.653,30.076-28.75,11.258-1.124,23.281,6.617,36.762,23.667l.11.139,0,.177-2,154.357a4.479,4.479,0,0,1-4.08,4.474l-18.171,2.266Q859,709.346,858.782,709.346Z" transform="translate(-195.765 -166.5)" fill="#17495b"/>
    <path id="Path_39" data-name="Path 39" d="M808.4,561.878a10.743,10.743,0,0,0,2.369-16.3l3.7-97.855-18,2.243-1.518,95.2A10.8,10.8,0,0,0,808.4,561.878Z" transform="translate(-195.765 -166.5)" fill="#ffb8b8"/>
    <path id="Path_40" data-name="Path 40" d="M819.788,465.022l-24.172-2.747a4.817,4.817,0,0,1-4.111-6.025l6.241-23.437a13.377,13.377,0,1,1,26.575,3.1l.826,24.162a4.817,4.817,0,0,1-5.358,4.949Z" transform="translate(-195.765 -166.5)" fill="#35bbee"/>
    <path id="Path_41" data-name="Path 41" d="M923.914,403.422a10.538,10.538,0,0,0-.239,1.64l-42.957,24.782-10.441-6.011-11.131,14.572,17.45,12.438a8,8,0,0,0,9.6-.234l44.3-34.946a10.5,10.5,0,1,0-6.576-12.241Z" transform="translate(-195.765 -166.5)" fill="#ffb8b8"/>
    <path id="Path_42" data-name="Path 42" d="M879.281,431.018,865.4,449.012a4.5,4.5,0,0,1-6.8.373l-15.717-16.321A12.5,12.5,0,1,1,858.2,413.319l19.713,11.023a4.5,4.5,0,0,1,1.365,6.676Z" transform="translate(-195.765 -166.5)" fill="#35bbee"/>
    <path id="Path_43" data-name="Path 43" d="M890.607,555.563,863.953,425.734a24.345,24.345,0,0,0-27.85-19.118l-8.889,1.482a23.838,23.838,0,0,0-15.48,9.658h0a33.29,33.29,0,0,0-4.973,28.31l14.712,52.655-10.919,56.412a4,4,0,0,0,4.487,4.72c5.466-.782,14.477-1.9,24.825-2.507l5.606-21.626L847.754,557c12.712-.356,26.512.267,37.9,3.225a4,4,0,0,0,4.957-4.665Z" transform="translate(-195.765 -166.5)" fill="#35bbee"/>
    <path id="Path_44" data-name="Path 44" d="M843.775,368.564c6.313,4.32,14.6,8.762,21.049,4.161,4.234-3.021,5.567-8.615,3.851-13.525-3.087-8.829-11.569-12.715-19.68-15.695-10.544-3.873-22.026-6.954-32.911-4.181s-20.506,13.313-18.541,24.373c1.58,8.894,9.97,16.295,8.779,25.25-1.2,9.012-11.334,13.756-20.281,15.367s-18.96,2.128-25.391,8.555c-8.2,8.2-6.155,22.853,1.564,31.509s19.367,12.58,30.654,15.248c14.955,3.534,31.129,5.392,45.332-.474s25.256-21.654,21.141-36.46c-1.738-6.254-5.832-11.539-9.789-16.685s-7.963-10.526-9.472-16.839c-1.258-5.261-.327-11.369,3.162-15.315a4.437,4.437,0,0,0,.594-5.186Z" transform="translate(-195.765 -166.5)" fill="#17495b"/>
    <path id="Path_45" data-name="Path 45" d="M601.674,187.723a10.59,10.59,0,0,1,10.559,10.559V219.4a10.59,10.59,0,0,1-10.558,10.559H580.559A10.59,10.59,0,0,1,570,219.4V198.281a10.59,10.59,0,0,1,10.558-10.558h21.115m0-4.223H580.559a14.825,14.825,0,0,0-14.781,14.781V219.4a14.825,14.825,0,0,0,14.781,14.781h21.115A14.825,14.825,0,0,0,616.455,219.4V198.281A14.824,14.824,0,0,0,601.674,183.5Z" transform="translate(-195.765 -166.5)" fill="#236b87"/>
    <path id="Path_46" data-name="Path 46" d="M604.841,198.281a3.161,3.161,0,1,1,.014,0Z" transform="translate(-195.765 -166.5)" fill="#236b87"/>
    <path id="Path_47" data-name="Path 47" d="M591.117,200.392a8.447,8.447,0,1,1-8.447,8.447,8.447,8.447,0,0,1,8.447-8.447m0-4.223a12.669,12.669,0,1,0,12.669,12.669,12.669,12.669,0,0,0-12.669-12.669Z" transform="translate(-195.765 -166.5)" fill="#17495b"/>
    <path id="Path_48" data-name="Path 48" d="M163.168,553.731l-11.933-2.812,5.165-47.365,17.612,4.15Z" fill="#ffb8b8"/>
    <path id="Path_49" data-name="Path 49" d="M359.251,732.515l-38.477-9.065.115-.487a15.386,15.386,0,0,1,18.5-11.448h0l23.5,5.537Z" transform="translate(-195.765 -166.5)" fill="#17495b"/>
    <path id="Path_50" data-name="Path 50" d="M209.67,554.131H197.41l-5.832-47.288h18.094Z" fill="#ffb8b8"/>
    <path id="Path_51" data-name="Path 51" d="M408.561,732.515h-39.53v-.5a15.386,15.386,0,0,1,15.387-15.386h24.145Z" transform="translate(-195.765 -166.5)" fill="#17495b"/>
    <path id="Path_52" data-name="Path 52" d="M471.649,533.616A10.743,10.743,0,0,0,466.414,518L430.52,426.974,410.549,439.1l41.562,85.661a10.8,10.8,0,0,0,19.537,8.858Z" transform="translate(-195.765 -166.5)" fill="#ffb8b8"/>
    <path id="Path_53" data-name="Path 53" d="M438.148,442.027l-22.815,8.445a4.817,4.817,0,0,1-6.386-3.525l-5-23.734A13.377,13.377,0,1,1,429.07,414l11.63,21.195a4.817,4.817,0,0,1-2.551,6.833Z" transform="translate(-195.765 -166.5)" fill="#35bbee"/>
    <path id="Path_54" data-name="Path 54" d="M404.621,703.655l-.18,0-17.377-.7a4.474,4.474,0,0,1-4.32-4.559l1.333-96a1.5,1.5,0,0,0-2.992-.178L371,698.326a4.514,4.514,0,0,1-3.736,3.97l-.06.01-16.314-1.282a4.5,4.5,0,0,1-5.178-4.474l.975-162.779,80.051,5.066-17.65,160.811a4.515,4.515,0,0,1-4.472,4.008Z" transform="translate(-195.765 -166.5)" fill="#17495b"/>
    <circle id="Ellipse_13" data-name="Ellipse 13" cx="24.561" cy="24.561" r="24.561" transform="translate(169.662 176.048)" fill="#ffb8b8"/>
    <path id="Path_55" data-name="Path 55" d="M422.763,546q-.169,0-.34-.012l-73.984-5.413A4.5,4.5,0,0,1,344.269,536l1.951-92.9a41.909,41.909,0,1,1,83.639,2.786c-1.294,14.318-2.323,76.87-2.607,95.7A4.5,4.5,0,0,1,422.763,546Z" transform="translate(-195.765 -166.5)" fill="#35bbee"/>
    <path id="Path_56" data-name="Path 56" d="M290.918,394.692a10.527,10.527,0,0,1,.239,1.64l42.957,24.782,10.441-6.011,11.131,14.572-17.45,12.438a8,8,0,0,1-9.6-.234l-44.3-34.946a10.5,10.5,0,1,1,6.576-12.241Z" transform="translate(-195.765 -166.5)" fill="#ffb8b8"/>
    <path id="Path_57" data-name="Path 57" d="M334.7,418.637a4.5,4.5,0,0,1,2.211-3.025l19.713-11.023a12.5,12.5,0,1,1,15.327,19.744l-15.717,16.321a4.5,4.5,0,0,1-6.8-.373l-13.884-17.994a4.5,4.5,0,0,1-.846-3.651Z" transform="translate(-195.765 -166.5)" fill="#35bbee"/>
    <path id="Path_58" data-name="Path 58" d="M402.681,386.554a22.371,22.371,0,0,1-18.848-10.584c-.216-.339-1.4-2.075-2.767-4.085-3.847-5.648-4.749-6.992-4.825-7.189-1.041-2.686-4.345-3.723-6.933-4.12-.483-.074-.973-.14-1.464-.206-3.646-.488-7.415-.993-9.482-5-1.516-2.94-4-14.914-2.091-17.84,2.387-3.67,6.971-2.479,11.4-1.325,2.836.736,5.769,1.5,8.106,1.013,10.129-2.107,21.61-4.5,31.749,1.679,8.07,4.913,12.923,14.192,12.667,24.217-.275,10.765-4.97,19.262-12.559,22.73l-1.58.46-.889.109a21.984,21.984,0,0,1-2.487.142Z" transform="translate(-195.765 -166.5)" fill="#17495b"/>
    <path id="Path_59" data-name="Path 59" d="M963.706,348.3a27.544,27.544,0,0,0-11.053,52.772,24.393,24.393,0,0,1,.479-6.32c.529-2.238,3.541-15.013,3.541-15.013a10.515,10.515,0,0,1-.885-4.353c0-4.082,2.361-7.131,5.311-7.131,2.508,0,3.713,1.881,3.713,4.131,0,2.521-1.611,6.283-2.435,9.775a4.258,4.258,0,0,0,4.353,5.3c5.213,0,8.73-6.7,8.73-14.644,0-6.037-4.07-10.549-11.459-10.549-8.349,0-13.562,6.234-13.562,13.193a7.939,7.939,0,0,0,1.82,5.4,1.346,1.346,0,0,1,.393,1.537c-.135.5-.43,1.721-.566,2.213a.946.946,0,0,1-1.377.689c-3.848-1.574-5.643-5.779-5.643-10.525,0-7.82,6.6-17.2,19.685-17.2,10.513,0,17.435,7.611,17.435,15.775,0,10.808-6.012,18.873-14.865,18.873-2.975,0-5.767-1.611-6.726-3.43,0,0-1.6,6.344-1.943,7.574a22.891,22.891,0,0,1-2.766,5.9,27.546,27.546,0,1,0,7.82-53.964Z" transform="translate(-195.765 -166.5)" fill="#17495b"/>
    <path id="Path_60" data-name="Path 60" d="M808.612,257.967l-35.424-10.9a3.622,3.622,0,0,0-4.644,2.19l-10.923,35.5a3.907,3.907,0,0,0,2.508,4.753l35.414,10.9a3.709,3.709,0,0,0,4.524-2.59l10.923-35.5a3.4,3.4,0,0,0-2.378-4.35Zm-36.779,27.414-6.081-1.871,5.817-18.906,6.081,1.871ZM775.7,262.73l-.044-.013a3.459,3.459,0,1,1,.044.013Zm18.352,29.489-6.081-1.871,3.18-10.338c.762-2.477.4-4.441-1.8-5.118a3.479,3.479,0,0,0-3.809,1.285,4.286,4.286,0,0,0-.67,1.429l-3.313,10.769-6.081-1.871L781.3,267.6l6.081,1.871-.81,2.631a6.442,6.442,0,0,1,6.43-1.386c3.992,1.228,6.2,4.788,4.457,10.46Z" transform="translate(-195.765 -166.5)" fill="#17495b"/>
    <path id="Path_61" data-name="Path 61" d="M265.691,407.665a27.456,27.456,0,1,0-31.746,27.124V415.6h-6.973v-7.939h6.973v-6.05c0-6.88,4.1-10.683,10.371-10.683a42.193,42.193,0,0,1,6.147.537v6.757H247c-3.409,0-4.475,2.116-4.475,4.29v5.15h7.614l-1.216,7.939h-6.4v19.186a27.464,27.464,0,0,0,23.167-27.126Z" transform="translate(-195.765 -166.5)" fill="#17495b" fill-rule="evenodd"/>
    <path id="Path_62" data-name="Path 62" d="M1003.77,732.5a1,1,0,0,1-1,1h-806a1,1,0,0,1,0-2h806a1,1,0,0,1,1,1Z" transform="translate(-195.765 -166.5)" fill="#236b87"/>
  </g>
</svg>
