<svg xmlns="http://www.w3.org/2000/svg" width="913" height="441.869" viewBox="0 0 913 441.869">
  <g id="Group_7" data-name="Group 7" transform="translate(0 0)">
    <path id="Path_130" data-name="Path 130" d="M267.718,582.341H954.362V234.73H267.718Z" transform="translate(-143.5 -229.066)" fill="#fff"/>
    <path id="Path_131" data-name="Path 131" d="M960.026,588.005H262.054V229.066H960.026ZM273.382,576.677H948.7V240.394H273.382Z" transform="translate(-143.5 -229.066)" fill="#e5e5e5"/>
    <path id="Path_132" data-name="Path 132" d="M444.691,79.2V197.186H273.183L241.5,235.2l3.618-38.017H229.7V79.2Z" fill="#35bbee"/>
    <path id="Path_133" data-name="Path 133" d="M548.482,86.2v75.646H658.445l20.315,24.374-2.319-24.374h9.884V86.2Z" fill="#f0f0f0"/>
    <path id="Path_134" data-name="Path 134" d="M94.66,430.711h9.921l4.72-38.266H94.659Z" fill="#ffb7b7"/>
    <path id="Path_135" data-name="Path 135" d="M235.63,656.538h19.539a12.452,12.452,0,0,1,12.451,12.45v.405H235.63Z" transform="translate(-143.5 -229.066)" fill="#17495b"/>
    <path id="Path_136" data-name="Path 136" d="M213.852,430.385l9.634-2.371-4.561-38.285-14.218,3.5Z" fill="#ffb7b7"/>
    <path id="Path_137" data-name="Path 137" d="M354.121,656.911l18.972-4.669h0a12.452,12.452,0,0,1,15.065,9.115l.1.393-31.062,7.645Z" transform="translate(-143.5 -229.066)" fill="#17495b"/>
    <path id="Path_138" data-name="Path 138" d="M232.059,650.653l2.061-10.544s3.794-40.713,31.019-81.346L274,514.624s-2.632-33.41,22.77-51.5l7.831-5.395,27.457,1.574,6.342,34.718,12.777,82.148s3.3.309,4.534,9.809a28.568,28.568,0,0,1,4.328,13.242s6.539,18.039,8.291,31.321l-.206,13L354.317,650.9l-28.779-81.39-20.584-45.5s-9.907,32.059-25.082,59.523c0,0-20.784,44.987-24.937,54.127L250.4,652.615Z" transform="translate(-143.5 -229.066)" fill="#17495b"/>
    <circle id="Ellipse_25" data-name="Ellipse 25" cx="19.625" cy="19.625" r="19.625" transform="translate(160.738 119.557)" fill="#ffb7b7"/>
    <circle id="Ellipse_26" data-name="Ellipse 26" cx="19.625" cy="19.625" r="19.625" transform="translate(160.738 119.557)" fill="#ffb8b8"/>
    <path id="Path_139" data-name="Path 139" d="M296.829,463.338l6.479-16.183a72.785,72.785,0,0,1,.8-45.383h0l1.239-1.021c10.8-8.893,20.276-7.274,29.071,3.6h0A24.317,24.317,0,0,0,339.34,409c3.879,2.721,10.033,17.507,1.907,26.174l-6.5,37.918C335.431,494.023,320.24,486.14,296.829,463.338Z" transform="translate(-143.5 -229.066)" fill="#1e6b88"/>
    <path id="Path_140" data-name="Path 140" d="M389.723,441.328a7.185,7.185,0,0,0-10.737,2.471l-16.37-1.275-3.2,9.759,23.143,1.475a7.224,7.224,0,0,0,7.165-12.431Z" transform="translate(-143.5 -229.066)" fill="#ffb7b7"/>
    <path id="Path_141" data-name="Path 141" d="M374.05,457.159l-46.646-8.71-15.172-25.436a10.834,10.834,0,1,1,20.382-7.351l7.116,19.678,36.89,6.106Z" transform="translate(-143.5 -229.066)" fill="#ccc"/>
    <circle id="Ellipse_27" data-name="Ellipse 27" cx="18.828" cy="18.828" r="18.828" transform="translate(126.553 97.227)" fill="#2f2e41"/>
    <path id="Path_142" data-name="Path 142" d="M272.641,360.712a18.829,18.829,0,0,0,29.076-9.886,18.829,18.829,0,1,1-36.729-7.721,18.822,18.822,0,0,0,7.653,17.608Z" transform="translate(-143.5 -229.066)" fill="#2f2e41"/>
    <path id="Path_143" data-name="Path 143" d="M346.945,360.733c-3.287-5.885-4.545-8.343-8.783-11.921-3.748-3.165-8.358-4.094-12.076-1.1a22.4,22.4,0,1,0,13.284,17.922C342.6,365.184,343.713,361.187,346.945,360.733Z" transform="translate(-143.5 -229.066)" fill="#2f2e41"/>
    <path id="Path_144" data-name="Path 144" d="M925.749,501.591a8.893,8.893,0,0,1,10.858-8.251l11.761-16.574,11.815,4.69-16.937,23.173a8.942,8.942,0,0,1-17.5-3.038Z" transform="translate(-143.5 -229.066)" fill="#a0616a"/>
    <path id="Path_145" data-name="Path 145" d="M938.65,487.337l20.91-35.168-8.519-22.718,11.6-30.942.428.184c.281.12,6.873,3.062,7.851,13.6L984.257,454.2,948.67,500.363Z" transform="translate(-143.5 -229.066)" fill="#1e6b88"/>
    <path id="Path_146" data-name="Path 146" d="M825.085,358.048a8.893,8.893,0,0,1,7.386,11.463l15.615,13.007-5.59,11.417L820.7,375.257a8.942,8.942,0,0,1,4.382-17.209Z" transform="translate(-143.5 -229.066)" fill="#a0616a"/>
    <path id="Path_147" data-name="Path 147" d="M838.3,372.013l33.446,23.567,23.309-6.737L925.005,402.8l-.216.412c-.142.27-3.584,6.616-14.164,6.776l-42.812,10.054L824.537,381Z" transform="translate(-143.5 -229.066)" fill="#1e6b88"/>
    <path id="Path_148" data-name="Path 148" d="M756,429.531H744.371l-5.531-44.85H756Z" fill="#a0616a"/>
    <path id="Path_149" data-name="Path 149" d="M736.066,426.208H758.49v14.119H721.947a14.119,14.119,0,0,1,14.119-14.119Z" fill="#17495b"/>
    <path id="Path_150" data-name="Path 150" d="M802.472,429.531H790.844l-5.531-44.85h17.161Z" fill="#a0616a"/>
    <path id="Path_151" data-name="Path 151" d="M782.539,426.208h22.424v14.119H768.42a14.119,14.119,0,0,1,14.119-14.119Z" fill="#17495b"/>
    <path id="Path_152" data-name="Path 152" d="M806.607,265.827l-.948,66.39-.949,87.255-20.865-1.9-10.433-120.45-13.278,120.45H738.593l-2.17-121.4,7.588-26.556Z" fill="#17495b"/>
    <path id="Path_153" data-name="Path 153" d="M885.431,499.091l-3.179-.138,14.765-81.336-6.045-24.584a5.38,5.38,0,0,1,3.335-6.321l10.877-4.079,3.843-10.568,30.319,3.267.746,8.259c3.285,1.054,30.341,10.064,28.474,20.331-1.842,10.134-12.721,42.015-13.274,43.631l-1.905,45.722-.234.117c-.282.141-21.18,10.416-43.883,10.415a57.723,57.723,0,0,1-23.837-4.717Z" transform="translate(-143.5 -229.066)" fill="#1e6b88"/>
    <circle id="Ellipse_28" data-name="Ellipse 28" cx="21.83" cy="21.83" r="21.83" transform="translate(757.667 94.111)" fill="#a0616a"/>
    <path id="Path_154" data-name="Path 154" d="M940.679,366.138c-4.16,4.432-11.886,2.053-12.428-4a7.316,7.316,0,0,1,.009-1.413c.28-2.682,1.829-5.116,1.458-7.948a4.169,4.169,0,0,0-.763-1.951c-3.315-4.439-11.1,1.986-14.226-2.033-1.918-2.464.337-6.344-1.136-9.1-1.943-3.635-7.7-1.842-11.308-3.833-4.016-2.215-3.775-8.376-1.132-12.124,3.224-4.57,8.876-7.009,14.458-7.36s11.125,1.157,16.336,3.188c5.921,2.307,11.792,5.5,15.436,10.7,4.431,6.331,4.857,14.843,2.641,22.246C948.677,357.018,944.077,362.519,940.679,366.138Z" transform="translate(-143.5 -229.066)" fill="#2f2e41"/>
    <path id="Path_155" data-name="Path 155" d="M560.665,423.5l3.243-8.342-30.632-16.479-4.787,12.312Z" fill="#ffb8b8"/>
    <path id="Path_156" data-name="Path 156" d="M721.541,630.8A11.227,11.227,0,0,0,707,637.2l-2.188,5.623-3.373,8.68-.825,2.128,10.809,4.2,10.455-26.9Z" transform="translate(-143.5 -229.066)" fill="#17495b"/>
    <path id="Path_157" data-name="Path 157" d="M701.443,636.512l-1.411,3.74-3.52,9.336-.084.234c-8.968,1.152-18.8-1.107-27.894-4.616a113.371,113.371,0,0,1-10.676-4.764c-5.143-2.6-9.747-5.341-13.42-7.686-5.531-3.55-8.95-6.215-8.95-6.215s-.9.816-2.538,2.216c-2.191,1.875-5.693,4.8-10.128,8.249q-2.538,1.986-5.45,4.154c-14.309,10.614-32.673-17.708-32.673-17.708s5.165-3.288,6.514-3.927c4.345-2.055,14.551-6.906,23.357-11.216,4.537-2.224,8.7-4.309,11.489-5.791,9.889-5.265,22.181,4.7,22.181,4.7Z" transform="translate(-143.5 -229.066)" fill="#2f2e41"/>
    <path id="Path_158" data-name="Path 158" d="M701.443,636.512l-1.411,3.74-3.52,9.336-.084.234c-8.968,1.152-18.8-1.107-27.894-4.616a113.371,113.371,0,0,1-10.676-4.764c-5.143-2.6-9.747-5.341-13.42-7.686-5.531-3.55-8.95-6.215-8.95-6.215s-.9.816-2.538,2.216c-2.191,1.875-5.693,4.8-10.128,8.249q-2.538,1.986-5.45,4.154c-14.309,10.614-32.673-17.708-32.673-17.708s5.165-3.288,6.514-3.927c4.345-2.055,14.551-6.906,23.357-11.216,4.537-2.224,8.7-4.309,11.489-5.791,9.889-5.265,22.181,4.7,22.181,4.7Z" transform="translate(-143.5 -229.066)" fill="#17495b" opacity="0.14"/>
    <path id="Path_159" data-name="Path 159" d="M558.313,558H515.971a3.289,3.289,0,0,1-3.285-3.285V536.46a24.456,24.456,0,0,1,48.912,0v18.251A3.289,3.289,0,0,1,558.313,558Z" transform="translate(-143.5 -229.066)" fill="#2f2e41"/>
    <path id="Path_160" data-name="Path 160" d="M598.58,580.92a6.846,6.846,0,0,0-5.246,9.092L581.82,600.6l4.729,8.566L602.6,593.985a6.883,6.883,0,0,0-4.019-13.065Z" transform="translate(-143.5 -229.066)" fill="#ffb8b8"/>
    <path id="Path_161" data-name="Path 161" d="M563.935,629.067q-.78,0-1.563-.067a18.4,18.4,0,0,1-14.818-9.9l-18.446-35.5a10.187,10.187,0,0,1,17.615-10.195l17.018,38.183L586.9,592.775l13.407,5.219-22.643,25A18.6,18.6,0,0,1,563.935,629.067Z" transform="translate(-143.5 -229.066)" fill="#35bbee"/>
    <path id="Path_162" data-name="Path 162" d="M558.077,435.233l3.874-8.068-29.275-18.784-5.718,11.908Z" fill="#ffb8b8"/>
    <path id="Path_163" data-name="Path 163" d="M720.574,643.936a11.227,11.227,0,0,0-14.987,5.263l-2.613,5.439-4.03,8.4-.986,2.059,10.454,5.023L720.9,644.1Z" transform="translate(-143.5 -229.066)" fill="#17495b"/>
    <path id="Path_164" data-name="Path 164" d="M700.1,648.083,698.4,651.7l-4.227,9.038-.1.226c-9.03.46-18.659-2.548-27.456-6.745a113.373,113.373,0,0,1-10.279-5.57c-4.928-2.986-9.308-6.074-12.79-8.695-5.242-3.964-8.446-6.884-8.446-6.884s-.964.745-2.7,2.015c-2.329,1.7-6.045,4.351-10.731,7.446q-2.683,1.785-5.753,3.723c-15.083,9.483-36.531,21.032-54.774,23.47-32.041,4.285-24.5-38.473-24.5-38.473l25.5-13.243,10.826,2.2,12.053,2.438,4.271.869s.81-.307,2.2-.84c4.49-1.716,15.039-5.767,24.149-9.388,4.694-1.869,9-3.628,11.9-4.891,10.264-4.49,21.755,6.388,21.755,6.388Z" transform="translate(-143.5 -229.066)" fill="#17495b"/>
    <path id="Path_165" data-name="Path 165" d="M489.981,670.749a6.846,6.846,0,0,0,4.769-9.351L505.7,650.227l-5.165-8.31-15.243,15.992a6.883,6.883,0,0,0,4.689,12.84Z" transform="translate(-143.5 -229.066)" fill="#ffb8b8"/>
    <circle id="Ellipse_29" data-name="Ellipse 29" cx="17.073" cy="17.073" r="17.073" transform="translate(382.564 295.6)" fill="#ffb8b8"/>
    <path id="Path_166" data-name="Path 166" d="M520.926,589.13,535.8,631.294l-.089.148c-2.069,3.42-2.745,6.178-1.955,7.977a3.476,3.476,0,0,0,2.2,1.9l35.194-24.6-1.232-9.859.069-.11c3.4-5.443,4.5-10.372,3.274-14.65a14.139,14.139,0,0,0-6.713-8.1l-.123-.1-17.554-21.364-23.465,4.169Z" transform="translate(-143.5 -229.066)" fill="#35bbee"/>
    <path id="Path_167" data-name="Path 167" d="M498.31,663.137l-9.963-12.262,24.018-39.648,11.2-34.613.347.112-.347-.112a13.9,13.9,0,1,1,24.794,12l-20.558,30.8Z" transform="translate(-143.5 -229.066)" fill="#35bbee"/>
    <path id="Path_168" data-name="Path 168" d="M567.384,538.285H541.493l-.266-3.717-1.327,3.717h-3.987l-.526-7.367-2.631,7.367h-7.714v-.365a19.368,19.368,0,0,1,19.346-19.346h3.65a19.368,19.368,0,0,1,19.346,19.346Z" transform="translate(-143.5 -229.066)" fill="#2f2e41"/>
    <path id="Path_169" data-name="Path 169" d="M541.281,561.4a3.352,3.352,0,0,1-.581-.051l-18.958-3.345V526.674h20.87l-.517.6c-7.189,8.384-1.773,21.979,2.1,29.336a3.237,3.237,0,0,1-.257,3.436A3.272,3.272,0,0,1,541.281,561.4Z" transform="translate(-143.5 -229.066)" fill="#2f2e41"/>
    <path id="Path_170" data-name="Path 170" d="M681.028,276.2v44.141H485.481l-28.237,33.879,3.225-33.879H446.73V276.2Z" fill="#f0f0f0"/>
    <circle id="Ellipse_30" data-name="Ellipse 30" cx="8" cy="8" r="8" transform="translate(520.028 290.203)" fill="#fff"/>
    <circle id="Ellipse_31" data-name="Ellipse 31" cx="8" cy="8" r="8" transform="translate(493.028 290.203)" fill="#fff"/>
    <circle id="Ellipse_32" data-name="Ellipse 32" cx="8" cy="8" r="8" transform="translate(466.028 290.203)" fill="#fff"/>
    <path id="Path_171" data-name="Path 171" d="M1055.5,670.269h-911a1,1,0,0,1,0-2h911a1,1,0,0,1,0,2Z" transform="translate(-143.5 -229.066)" fill="#cacaca"/>
  </g>
</svg>
