<svg xmlns="http://www.w3.org/2000/svg" width="881.494" height="636.572" viewBox="0 0 881.494 636.572">
  <g id="Group_6" data-name="Group 6" transform="translate(-0.001)">
    <path id="Path_97" data-name="Path 97" d="M386.169,503.174s1.85,37-77.075,82.625c0,0-.094.2,577.756,0,0,0-65.976-46.862-70.293-99.273" transform="translate(-159.25 -131.714)" opacity="0.2"/>
    <path id="Path_98" data-name="Path 98" d="M814.114,476.725V165.844a17.346,17.346,0,0,0,13-16.791h0a17.339,17.339,0,0,0-17.339-17.339H393.63a17.339,17.339,0,0,0-17.339,17.339h0a17.339,17.339,0,0,0,17.339,17.339h0L384,477l-77.35,99s-.65,0,577.756,0C884.407,576,884,577,814.114,476.725Z" transform="translate(-159.25 -131.714)" fill="#e6e6e6"/>
    <ellipse id="Ellipse_17" data-name="Ellipse 17" cx="127.406" cy="9.8" rx="127.406" ry="9.8" transform="translate(330.695 389.757)" opacity="0.2"/>
    <path id="Path_99" data-name="Path 99" d="M234.38,34.679,654.864,46.925l.182-13Z" opacity="0.2"/>
    <path id="Path_100" data-name="Path 100" d="M697.44,275.419v38.222a1.336,1.336,0,0,1-1.333,1.333h-.948V514.085a20.776,20.776,0,0,1-20.773,20.775H549.971a20.771,20.771,0,0,1-20.77-20.773V321.957h-.687a.941.941,0,0,1-.943-.937V299.267a.942.942,0,0,1,.943-.943h.687V290.13h-.693a.987.987,0,0,1-.983-.989V267.685a.986.986,0,0,1,.983-.984h.693V255.517h-.7a.872.872,0,0,1-.873-.873V242.935a.877.877,0,0,1,.873-.879h.7V218.348a20.77,20.77,0,0,1,20.769-20.77H674.384a20.775,20.775,0,0,1,20.775,20.77v55.738h.948a1.336,1.336,0,0,1,1.332,1.333Z" transform="translate(-159.25 -131.714)" fill="#1e6b88"/>
    <rect id="Rectangle_41" data-name="Rectangle 41" width="23.175" height="4.706" rx="1.479" transform="translate(437.226 76.518)" fill="#e6e8ec"/>
    <circle id="Ellipse_18" data-name="Ellipse 18" cx="2.669" cy="2.669" r="2.669" transform="translate(463.905 76.202)" fill="#e6e8ec"/>
    <path id="Path_101" data-name="Path 101" d="M685.211,222.456V515.807a13.181,13.181,0,0,1-13.181,13.175H552.936a13.158,13.158,0,0,1-13.181-13.175V222.456a13.181,13.181,0,0,1,13.182-13.181h17.824v2.287a10.853,10.853,0,0,0,10.853,10.853h60.569a10.853,10.853,0,0,0,10.853-10.853v-2.287H672.03a13.177,13.177,0,0,1,13.181,13.181Z" transform="translate(-159.25 -131.714)" fill="#fff"/>
    <rect id="Rectangle_42" data-name="Rectangle 42" width="121.044" height="15.712" transform="translate(392.954 270.684)" fill="#e6e6e6"/>
    <rect id="Rectangle_43" data-name="Rectangle 43" width="121.044" height="15.712" transform="translate(392.954 298.617)" fill="#e6e6e6"/>
    <rect id="Rectangle_44" data-name="Rectangle 44" width="121.044" height="15.712" transform="translate(392.954 326.551)" fill="#e6e6e6"/>
    <rect id="Rectangle_45" data-name="Rectangle 45" width="121.044" height="80.308" transform="translate(392.711 157.788)" fill="#e6e6e6"/>
    <path id="Path_102" data-name="Path 102" d="M386.384,177.9l-62.074.386S222.139,232.649,293.851,345.23c0,0,29.3-6.94,61.688,16.964C355.54,362.2,374.432,182.142,386.384,177.9Z" transform="translate(-159.25 -131.714)" fill="#7dceec"/>
    <path id="Path_103" data-name="Path 103" d="M367.919,178.464C356.8,224.918,344.226,344.73,344.226,344.73c-28.935-21.357-55.389-18.1-60.7-17.157a205.622,205.622,0,0,0,10.328,18.106s29.3-6.94,61.688,16.964c0,0,18.892-180.053,30.844-184.294Z" transform="translate(-159.25 -131.714)" opacity="0.2"/>
    <path id="Path_104" data-name="Path 104" d="M134.216,104.4l-5.4,26.218-67.834-12.33-.023-.008L59.419,87.441H72.528Z" fill="#1e6b88"/>
    <path id="Path_105" data-name="Path 105" d="M71.433,87.441,60.984,118.293l-.023-.008L59.419,87.441Z" opacity="0.2"/>
    <ellipse id="Ellipse_19" data-name="Ellipse 19" cx="7.711" cy="17.735" rx="7.711" ry="17.735" transform="translate(124.192 98.237)" fill="#1e6b88"/>
    <path id="Path_106" data-name="Path 106" d="M251.055,622.486a2.357,2.357,0,0,1-2.357-2.357V247.686a2.357,2.357,0,1,1,4.714,0V620.129a2.357,2.357,0,0,1-2.357,2.357Z" transform="translate(-159.25 -131.714)" fill="#1e6b88"/>
    <path id="Path_107" data-name="Path 107" d="M283.439,688.03a2.357,2.357,0,0,1-2.31-1.906L248.742,520.1a2.357,2.357,0,0,1,4.284-1.744l85.593,130.557a2.357,2.357,0,1,1-3.942,2.585L255.668,530.979l30.087,154.243a2.357,2.357,0,0,1-1.862,2.765,2.39,2.39,0,0,1-.454.043Z" transform="translate(-159.25 -131.714)" fill="#1e6b88"/>
    <path id="Path_108" data-name="Path 108" d="M161.6,658.727a2.357,2.357,0,0,1-1.969-3.649l89.448-136.485a2.357,2.357,0,1,1,3.942,2.583L163.578,657.662A2.354,2.354,0,0,1,161.6,658.727Z" transform="translate(-159.25 -131.714)" fill="#1e6b88"/>
    <path id="Path_109" data-name="Path 109" d="M813.616,177.9l62.074.386s102.171,54.362,30.459,166.943c0,0-29.3-6.94-61.688,16.964C844.46,362.2,825.568,182.142,813.616,177.9Z" transform="translate(-159.25 -131.714)" fill="#7dceec"/>
    <path id="Path_110" data-name="Path 110" d="M832.081,178.464C843.2,224.918,855.774,344.73,855.774,344.73c28.935-21.357,55.389-18.1,60.7-17.157a205.627,205.627,0,0,1-10.328,18.106s-29.3-6.94-61.688,16.964c0,0-18.892-180.053-30.844-184.294Z" transform="translate(-159.25 -131.714)" opacity="0.2"/>
    <path id="Path_111" data-name="Path 111" d="M747.284,104.4l5.4,26.218,67.834-12.33.023-.008,1.542-30.844H808.973Z" fill="#1e6b88"/>
    <path id="Path_112" data-name="Path 112" d="M810.067,87.441l10.449,30.852.023-.008,1.542-30.844Z" opacity="0.2"/>
    <ellipse id="Ellipse_20" data-name="Ellipse 20" cx="7.711" cy="17.735" rx="7.711" ry="17.735" transform="translate(741.887 98.237)" fill="#1e6b88"/>
    <path id="Path_113" data-name="Path 113" d="M948.945,622.486a2.357,2.357,0,0,1-2.357-2.357V247.686a2.357,2.357,0,1,1,4.714,0V620.129a2.357,2.357,0,0,1-2.357,2.357Z" transform="translate(-159.25 -131.714)" fill="#1e6b88"/>
    <path id="Path_114" data-name="Path 114" d="M916.562,688.03a2.356,2.356,0,0,1-2.316-2.808l30.087-154.243L865.324,651.495a2.357,2.357,0,1,1-3.942-2.585l85.592-130.557a2.357,2.357,0,0,1,4.285,1.744L918.873,686.124a2.358,2.358,0,0,1-2.311,1.906Z" transform="translate(-159.25 -131.714)" fill="#1e6b88"/>
    <path id="Path_115" data-name="Path 115" d="M1038.39,658.727a2.353,2.353,0,0,1-1.973-1.065L946.969,521.177a2.357,2.357,0,0,1,3.942-2.583l89.448,136.485a2.357,2.357,0,0,1-1.969,3.649Z" transform="translate(-159.25 -131.714)" fill="#1e6b88"/>
    <path id="Path_116" data-name="Path 116" d="M546.277,459l16.887-4.7s6.615-1.32,2.573-14.239-12.058-9.3-12.058-9.3L538.7,435.111l-5.914,1.827,8.322,11.675.7,7.782Z" transform="translate(-159.25 -131.714)" fill="#1e6b88"/>
    <path id="Path_117" data-name="Path 117" d="M354.4,293.155l-5.3,21.164,27.147,26.31,2.334.585,6.226-1.749,5.3-21.163-5.367-5.644,5.486-1.437-11.707-11.365-6.109,1.282-4.9-4.865,3.307-1.322.312-1.245-4.006-3.153Z" fill="#1e6b88"/>
    <path id="Path_118" data-name="Path 118" d="M379.831,323.006l-3.507,14-16.18-15.3,4.052-14.2Z" fill="#7dceec"/>
    <path id="Path_119" data-name="Path 119" d="M354.4,293.155l-.743,2.968,26.995,26.261,2.334.584,6.032-1.632.332-.007.758-3.027-5.367-5.644,5.486-1.437-11.707-11.365-6.109,1.282-4.9-4.865,3.307-1.322.312-1.245-4.006-3.153Z" fill="none" stroke="#1e6b88" stroke-miterlimit="10" stroke-width="1"/>
    <ellipse id="Ellipse_21" data-name="Ellipse 21" cx="1.524" cy="2.246" rx="1.524" ry="2.246" transform="translate(364.319 293.819) rotate(-75.943)" fill="#7dceec"/>
    <ellipse id="Ellipse_22" data-name="Ellipse 22" cx="1.524" cy="2.246" rx="1.524" ry="2.246" transform="translate(381.469 316.469) rotate(-75.943)" fill="#7dceec"/>
    <path id="Path_120" data-name="Path 120" d="M557.5,485.366l-3.683-12.521s9.575-22.833-1.473-25.042-11.785,21.36-11.785,21.36l4.419,13.994Z" transform="translate(-159.25 -131.714)" fill="#ffb6b6"/>
    <circle id="Ellipse_23" data-name="Ellipse 23" cx="29.257" cy="29.257" r="29.257" transform="translate(300.616 270.792)" fill="#ffb6b6"/>
    <path id="Path_121" data-name="Path 121" d="M498.588,452.415s1.721,21.513,6.024,23.234-46.468,13.768-46.468,13.768l12.908-14.629s2.582-22.373-3.442-27.536Z" transform="translate(-159.25 -131.714)" fill="#ffb6b6"/>
    <path id="Path_122" data-name="Path 122" d="M539.82,478.737l11.785-1.473S565.6,484.629,565.6,494.2s8.1,25.042,8.1,25.042,5.892,20.623-7.365,22.1-25.042-22.1-25.042-22.1Z" transform="translate(-159.25 -131.714)" fill="#7dceec"/>
    <path id="Path_123" data-name="Path 123" d="M546.449,595.847s25.779-24.306,33.144-22.833,22.1,3.683,22.1,14.731-24.306,36.827-24.306,36.827-18.414,40.51-36.091,41.983a305.063,305.063,0,0,0-34.617,5.156s8.1,29.462,3.683,37.564-21.36,17.677-22.833,16.94-22.1-19.887-30.935-47.139-14.731-47.875-6.629-49.348S546.449,595.847,546.449,595.847Z" transform="translate(-159.25 -131.714)" fill="#17495b"/>
    <path id="Path_124" data-name="Path 124" d="M599.48,585.536s5.156-.737,4.419,11.785-2.946,57.45-6.629,66.289-4.419,19.15-2.946,22.833,4.419,9.575-.737,10.312-26.516-2.21-28.725-2.946-4.419-13.258-2.946-13.258,5.156-.737,3.683-5.892-2.21-5.156,0-6.629,8.1-3.683,6.629-5.156-2.946-36.091-2.946-36.091Z" transform="translate(-159.25 -131.714)" fill="#17495b"/>
    <path id="Path_125" data-name="Path 125" d="M592.115,694.544s12.521-3.683,13.994,4.419c0,0,2.21,12.521-7.365,16.94a118.329,118.329,0,0,0-17.677,10.312s-15.467,5.892-16.2-1.473,2.946-33.881,2.946-33.881Z" transform="translate(-159.25 -131.714)" fill="#17495b"/>
    <path id="Path_126" data-name="Path 126" d="M508.885,703.382l-23.569-19.15s4.419,23.569-1.473,27.989l-2.692,7.869,7.537,6.165S511.832,722.532,508.885,703.382Z" transform="translate(-159.25 -131.714)" fill="#17495b"/>
    <path id="Path_127" data-name="Path 127" d="M475.741,670.974s15.467,4.419,13.258,19.887-5.043,32.271-5.043,32.271-.85,41.383-11.9,44.329-13.994-2.946-13.994-2.946-12.559-32.338-8.839-41.983c4.5-11.675,10.992-24.784,8.839-28.725C455.945,689.929,459.537,668.765,475.741,670.974Z" transform="translate(-159.25 -131.714)" fill="#17495b"/>
    <path id="Path_128" data-name="Path 128" d="M466.9,467.689s5.892.737,15.467,2.21,16.2-5.892,21.36-4.419S551.6,477.264,551.6,477.264l-6.629,50.821s8.1,58.923,6.629,69.235,17.677,8.839,6.629,21.36-30.2,23.569-69.235,19.887-44.193-2.946-44.193-8.839,8.839-55.977,5.892-60.4-8.839-9.575-5.892-14.731,5.892-8.1,1.473-12.521-6.629-8.839-6.629-11.048-10.312-38.3-10.312-38.3,4.419-17.677,9.575-18.414,9.575-4.419,13.258-4.419,5.892.737,8.1,0Z" transform="translate(-159.25 -131.714)" fill="#7dceec"/>
    <path id="Path_129" data-name="Path 129" d="M537.534,421.5c-.379-1.7-2.234-7.394-6.005-8.783-2.759-1.016-7.893,1.131-10.45.775l-.33-.937a21.248,21.248,0,0,0-1.367-5.376,27.513,27.513,0,0,0-15.1-15.387c-8.422-3.521-21.743-6.432-33.3,2.793-15.875,12.671-13.078,31.632-11.924,36.893q.289,1.316.495,2.649c.711,4.634,2.762,5.187,2.762,5.187s-.044-.134-.116-.377l14.339,1.4,7.752-1.323c.13.758.18,1.206.18,1.206,22.621-3.458,35.786-15.373,37.923-17.439,1.879,1.246,5.379,3.28,8.774,3.727C536.141,427.158,537.913,423.2,537.534,421.5Zm-58.287,11.391-18.216-.663c-.258-4.972,1.026-10.786,8.348-11.083,7.06-.286,10.913,5.454,12.955,10.709Z" transform="translate(-159.25 -131.714)" fill="#17495b"/>
    <ellipse id="Ellipse_24" data-name="Ellipse 24" cx="3.223" cy="1.219" rx="3.223" ry="1.219" transform="translate(321.17 256.804) rotate(-9.685)" fill="#17495b"/>
  </g>
</svg>
