<svg id="Group_3" data-name="Group 3" xmlns="http://www.w3.org/2000/svg" width="842.17" height="568.852" viewBox="0 0 842.17 568.852">
  <path id="Path_6" data-name="Path 6" d="M716.621,734.168v-72.34S744.813,713.114,716.621,734.168Z" transform="translate(-178.451 -165.316)" fill="#f1f1f1"/>
  <path id="Path_7" data-name="Path 7" d="M718.362,734.156l-53.29-48.921S721.918,699.15,718.362,734.156Z" transform="translate(-178.451 -165.316)" fill="#f1f1f1"/>
  <rect id="Rectangle_62" data-name="Rectangle 62" width="841.811" height="399.454" transform="translate(0.359 23.079)" fill="#e5e5e5"/>
  <rect id="Rectangle_75" data-name="Rectangle 75" width="793.668" height="333.277" transform="translate(24.431 57.333)" fill="#fff"/>
  <rect id="Rectangle_80" data-name="Rectangle 80" width="841.811" height="35.763" fill="#35bbee"/>
  <circle id="Ellipse_90" data-name="Ellipse 90" cx="6.628" cy="6.628" r="6.628" transform="translate(19.948 11.187)" fill="#fff"/>
  <circle id="Ellipse_91" data-name="Ellipse 91" cx="6.628" cy="6.628" r="6.628" transform="translate(45.107 11.187)" fill="#fff"/>
  <circle id="Ellipse_92" data-name="Ellipse 92" cx="6.628" cy="6.628" r="6.628" transform="translate(70.268 11.187)" fill="#fff"/>
  <path id="Path_680" data-name="Path 680" d="M332.911,298.519a3.268,3.268,0,1,0,0,6.536H422.2a3.268,3.268,0,0,0,0-6.536Z" transform="translate(-178.451 -165.316)" fill="#236b87"/>
  <path id="Path_680-2" data-name="Path 680" d="M282.411,343.519a3.268,3.268,0,1,0,0,6.536H472.7a3.268,3.268,0,0,0,0-6.536Z" transform="translate(-178.451 -165.316)" fill="#ccc"/>
  <path id="Path_680-3" data-name="Path 680" d="M282.411,369.519a3.268,3.268,0,1,0,0,6.536H472.7a3.268,3.268,0,0,0,0-6.536Z" transform="translate(-178.451 -165.316)" fill="#ccc"/>
  <path id="Path_680-4" data-name="Path 680" d="M282.411,395.519a3.268,3.268,0,1,0,0,6.536H472.7a3.268,3.268,0,0,0,0-6.536Z" transform="translate(-178.451 -165.316)" fill="#ccc"/>
  <path id="Path_680-5" data-name="Path 680" d="M282.411,421.519a3.268,3.268,0,1,0,0,6.536H472.7a3.268,3.268,0,0,0,0-6.536Z" transform="translate(-178.451 -165.316)" fill="#ccc"/>
  <path id="Path_680-6" data-name="Path 680" d="M282.411,447.519a3.268,3.268,0,1,0,0,6.536H472.7a3.268,3.268,0,0,0,0-6.536Z" transform="translate(-178.451 -165.316)" fill="#ccc"/>
  <path id="Path_680-7" data-name="Path 680" d="M282.411,473.519a3.268,3.268,0,1,0,0,6.536H472.7a3.268,3.268,0,0,0,0-6.536Z" transform="translate(-178.451 -165.316)" fill="#ccc"/>
  <path id="Path_8" data-name="Path 8" d="M910.161,481.454h-288.1a7.271,7.271,0,0,1-7.263-7.263V304.719a7.271,7.271,0,0,1,7.263-7.263h288.1a7.271,7.271,0,0,1,7.263,7.263V474.191A7.271,7.271,0,0,1,910.161,481.454Z" transform="translate(-178.451 -165.316)" fill="#f1f1f1"/>
  <path id="Path_9" data-name="Path 9" d="M948.061,520.216h-288.1a7.271,7.271,0,0,1-7.263-7.263V343.481a7.271,7.271,0,0,1,7.263-7.263h288.1a7.271,7.271,0,0,1,7.263,7.263V512.953a7.271,7.271,0,0,1-7.263,7.263Z" transform="translate(-178.451 -165.316)" fill="#fff"/>
  <path id="Path_10" data-name="Path 10" d="M948.06,522.688h-288.1a9.746,9.746,0,0,1-9.735-9.735V343.481a9.746,9.746,0,0,1,9.735-9.735h288.1a9.746,9.746,0,0,1,9.735,9.735V512.953A9.746,9.746,0,0,1,948.06,522.688Zm-288.1-184a4.8,4.8,0,0,0-4.792,4.792V512.953a4.8,4.8,0,0,0,4.792,4.792h288.1a4.8,4.8,0,0,0,4.792-4.792V343.481a4.8,4.8,0,0,0-4.792-4.792Z" transform="translate(-178.451 -165.316)" fill="#236b87"/>
  <circle id="Ellipse_10" data-name="Ellipse 10" cx="25" cy="25" r="25" transform="translate(600.17 260.43)" fill="#ff6583"/>
  <path id="Path_11" data-name="Path 11" d="M851.849,426.7a16.1,16.1,0,0,0-23.025-.411l-81.08,81.08c-10.386,10.435-21.228-5.525-28.156-11.961-16.66-16.477-34.656,14.419-45.854,23.267H934.285v-3.317Z" transform="translate(-178.451 -165.316)" fill="#35bbee"/>
  <path id="Path_12" data-name="Path 12" d="M530.681,524.977,526.3,464.223l7.874-56.932-22.362-1.51-4.414,62.889,12.475,59.14a8.8,8.8,0,1,0,10.812-2.833Z" transform="translate(-178.451 -165.316)" fill="#9f616a"/>
  <path id="Path_13" data-name="Path 13" d="M508.955,413.964l5.251-22.726a17.5,17.5,0,0,1,34.435,5.9l-2.892,25.679Z" transform="translate(-178.451 -165.316)" fill="#cbcbcb"/>
  <path id="Path_14" data-name="Path 14" d="M371.9,557.6h10.542l5.015-40.664H371.9Z" fill="#9f616a"/>
  <path id="Path_15" data-name="Path 15" d="M547.665,719.471h20.763a13.232,13.232,0,0,1,13.231,13.23v.431H547.666Z" transform="translate(-178.451 -165.316)" fill="#17495b"/>
  <path id="Path_16" data-name="Path 16" d="M424.424,557.252l10.135-2.9-6.375-40.473-14.958,4.285Z" fill="#9f616a"/>
  <path id="Path_17" data-name="Path 17" d="M599.342,720l19.959-5.717h0a13.232,13.232,0,0,1,16.363,9.076l.118.413L603.1,733.133Z" transform="translate(-178.451 -165.316)" fill="#17495b"/>
  <path id="Path_18" data-name="Path 18" d="M544.656,708.154l4.9-123.178-12.736-55.744c-17.139-28.735,1.351-74.57,1.54-75.03l.069-.168.18-.025,44.832-6.074.63,1.445A214.691,214.691,0,0,1,598.022,576.9l-4.666,23.866,23.061,93.11-21.826,10.913-16.746-43.424-11.32,44.429Z" transform="translate(-178.451 -165.316)" fill="#17495b"/>
  <path id="Path_19" data-name="Path 19" d="M532.459,465.626l-14.626-42.855c-9.092-16.012-3.325-30.228,3.114-39.333,6.954-9.832,7.371-15.347,7.464-15.408l.074-.049L547.7,367.4l17.784,18.071c1.119-.437,10.568,22.849,9.767,24.02l12.421,40.152Z" transform="translate(-178.451 -165.316)" fill="#cbcbcb"/>
  <path id="Path_20" data-name="Path 20" d="M650.886,473.038l-48.18-37.268-37.155-43.85-16.045,15.65,43.9,45.247,52.376,30.164a8.8,8.8,0,1,0,5.1-9.944Z" transform="translate(-178.451 -165.316)" fill="#9f616a"/>
  <path id="Path_21" data-name="Path 21" d="M544.947,423.426l-13.425-19.074a17.5,17.5,0,0,1,27.368-21.716l17.2,19.287Z" transform="translate(-178.451 -165.316)" fill="#cbcbcb"/>
  <circle id="Ellipse_11" data-name="Ellipse 11" cx="22.819" cy="22.819" r="22.819" transform="translate(334.563 151.19)" fill="#9f616a"/>
  <path id="Path_22" data-name="Path 22" d="M559.036,327.749H522.8V311.955c7.953-3.16,15.735-5.847,20.44,0a15.794,15.794,0,0,1,15.794,15.794Z" transform="translate(-178.451 -165.316)" fill="#17495b"/>
  <path id="Path_23" data-name="Path 23" d="M527.8,308.168c-33.2-.907-26.912,53.786-26.912,53.786s6.263.828,9.121,1.315l3.452-1.944,3.714,2.436c1.705.009,3.5-.025,5.354-.059l1.7-3.506,3.8,3.443c6.911.01,25.666.2,25.666.2S564.993,309.184,527.8,308.168Z" transform="translate(-178.451 -165.316)" fill="#17495b"/>
  <path id="Path_24" data-name="Path 24" d="M796.633,733.746h-381a1,1,0,1,1,0-2h381a1,1,0,0,1,0,2Z" transform="translate(-178.451 -165.316)" fill="#cbcbcb"/>
</svg>
