<svg id="Group_18" data-name="Group 18" xmlns="http://www.w3.org/2000/svg" width="860.244" height="688" viewBox="0 0 860.244 688">
  <path id="Path_247" data-name="Path 247" d="M386.983,492H174.876a5.006,5.006,0,0,1-5-5V233a5.006,5.006,0,0,1,5-5H386.983a5.006,5.006,0,0,1,5,5V487a5.006,5.006,0,0,1-5,5ZM174.876,230a3,3,0,0,0-3,3V487a3,3,0,0,0,3,3H386.983a3,3,0,0,0,3-3V233a3,3,0,0,0-3-3Z" transform="translate(-169.876 -106)" fill="#cacaca"/>
  <rect id="Rectangle_170" data-name="Rectangle 170" width="155" height="96" transform="translate(33.553 176)" fill="#1e6b88"/>
  <rect id="Rectangle_171" data-name="Rectangle 171" width="39" height="24" transform="translate(33.553 308)" fill="#e4e4e4"/>
  <rect id="Rectangle_172" data-name="Rectangle 172" width="39" height="24" transform="translate(149.553 308)" fill="#e4e4e4"/>
  <rect id="Rectangle_173" data-name="Rectangle 173" width="39" height="24" transform="translate(91.553 308)" fill="#e4e4e4"/>
  <path id="Path_248" data-name="Path 248" d="M678.983,370H466.876a5.006,5.006,0,0,1-5-5V111a5.006,5.006,0,0,1,5-5H678.983a5.006,5.006,0,0,1,5,5V365A5.006,5.006,0,0,1,678.983,370ZM466.876,108a3,3,0,0,0-3,3V365a3,3,0,0,0,3,3H678.983a3,3,0,0,0,3-3V111a3,3,0,0,0-3-3Z" transform="translate(-169.876 -106)" fill="#cacaca"/>
  <path id="Path_249" data-name="Path 249" d="M681.516,531H469.41a5.006,5.006,0,0,1-5-5V451a5.006,5.006,0,0,1,5-5H681.516a5.006,5.006,0,0,1,5,5v75a5.006,5.006,0,0,1-5,5ZM469.41,448a3,3,0,0,0-3,3v75a3,3,0,0,0,3,3H681.516a3,3,0,0,0,3-3V451a3,3,0,0,0-3-3Z" transform="translate(-169.876 -106)" fill="#cacaca"/>
  <rect id="Rectangle_174" data-name="Rectangle 174" width="154" height="24" rx="12" transform="translate(326.053 170.5)" fill="#e4e4e4"/>
  <rect id="Rectangle_175" data-name="Rectangle 175" width="154" height="24" rx="12" transform="translate(326.053 208.5)" fill="#e4e4e4"/>
  <circle id="Ellipse_75" data-name="Ellipse 75" cx="56" cy="56" r="56" transform="translate(347.053 31.5)" fill="#1e6b88"/>
  <rect id="Rectangle_176" data-name="Rectangle 176" width="81" height="24" rx="12" transform="translate(397.087 370.5)" fill="#e4e4e4"/>
  <circle id="Ellipse_76" data-name="Ellipse 76" cx="22" cy="22" r="22" transform="translate(333.087 360.5)" fill="#1e6b88"/>
  <path id="Path_250" data-name="Path 250" d="M1029.12,794h-381a1,1,0,0,1,0-2h381a1,1,0,0,1,0,2Z" transform="translate(-169.876 -106)" fill="#cacaca"/>
  <path id="Path_251" data-name="Path 251" d="M916.255,578.045a8.33,8.33,0,0,1,3.327-12.332l-2.944-29.455,13.62,7.149.708,26.875a8.375,8.375,0,0,1-14.711,7.763Z" transform="translate(-169.876 -106)" fill="#ffb6b6"/>
  <path id="Path_252" data-name="Path 252" d="M796.97,573.9a8.33,8.33,0,0,1,3.327-12.332l-2.944-29.455,13.62,7.149.708,26.875A8.375,8.375,0,0,1,796.97,573.9Z" transform="translate(-169.876 -106)" fill="#ffb6b6"/>
  <path id="Path_253" data-name="Path 253" d="M717.949,675.734H707.794l-4.832-39.172h14.989Z" fill="#ffb6b6"/>
  <path id="Path_254" data-name="Path 254" d="M890.415,791.578H857.669v-.414a12.746,12.746,0,0,1,12.745-12.745h20Z" transform="translate(-169.876 -106)" fill="#0b2630"/>
  <path id="Path_255" data-name="Path 255" d="M642.568,675.734H632.412l-4.831-39.172h14.988Z" fill="#ffb6b6"/>
  <path id="Path_256" data-name="Path 256" d="M815.034,791.578H782.288v-.414a12.746,12.746,0,0,1,12.745-12.745h20Z" transform="translate(-169.876 -106)" fill="#0b2630"/>
  <circle id="Ellipse_77" data-name="Ellipse 77" cx="26.819" cy="26.819" r="26.819" transform="translate(661.375 234.235) rotate(-28.663)" fill="#ffb8b8"/>
  <path id="Path_257" data-name="Path 257" d="M638.578,453.984l-4.97,7.873-9.94,205.018,20.709-.828L685.8,492.917,702.363,667.7l18.224.829,14.787-203.261Z" fill="#0b2630"/>
  <path id="Path_258" data-name="Path 258" d="M916.971,405.079l-33.963-18.224-38.1-2.485-33.578,20.709s29.437,86.979-2.87,137.509l-4.971,24.023L906.2,574.066s-6.627-107.688,2.485-120.942S916.971,405.079,916.971,405.079Z" transform="translate(-169.876 -106)" fill="#17495b"/>
  <path id="Path_259" data-name="Path 259" d="M905.25,409.592l11.721-4.514s20.709,18.224,19.881,62.128-5.3,92.777-5.3,92.777l-15.406,2.485-8.284-71.24-11.6-62.128Z" transform="translate(-169.876 -106)" fill="#17495b"/>
  <path id="Path_260" data-name="Path 260" d="M823.489,409.592l-11.721-4.514s-20.709,18.225-19.881,62.129,5.3,92.777,5.3,92.777l15.406,2.485,8.284-71.24,11.6-62.128Z" transform="translate(-169.876 -106)" fill="#17495b"/>
  <path id="Path_261" data-name="Path 261" d="M887.039,323.849a23.136,23.136,0,0,0-17.916-6.558c-5.772.466-6.148.606-11.333,3.185a91.523,91.523,0,0,0-9.4,5.141c-.028-1.232-5.144-5.945-5.972-5.032s2.135,6.841,1.473,7.881-6.646-2.677-7.272-3.739c4.623,6.375,10.727,18.979,9.262,26.716a7.716,7.716,0,0,1,13.476,4.642c.326,5.29-4.576,11.09-1.37,15.311,1.834,2.415,5.327,2.616,8.36,2.6l22.435-2.5c4.82-7.682,7.825-13.774,9.137-22.747S893.471,330.242,887.039,323.849Z" transform="translate(-169.876 -106)" fill="#2f2e41"/>
</svg>
